{
	"patcher" : 	{
		"fileversion" : 1,
		"appversion" : 		{
			"major" : 9,
			"minor" : 0,
			"revision" : 5,
			"architecture" : "x64",
			"modernui" : 1
		}
,
		"classnamespace" : "box",
		"rect" : [ 100.0, 100.0, 1146.0, 877.0 ],
		"gridsize" : [ 15.0, 15.0 ],
		"subpatcher_template" : "serialist_help",
		"showrootpatcherontab" : 0,
		"showontab" : 0,
		"boxes" : [ 			{
				"box" : 				{
					"id" : "obj-4",
					"maxclass" : "newobj",
					"numinlets" : 0,
					"numoutlets" : 0,
					"patcher" : 					{
						"fileversion" : 1,
						"appversion" : 						{
							"major" : 9,
							"minor" : 0,
							"revision" : 5,
							"architecture" : "x64",
							"modernui" : 1
						}
,
						"classnamespace" : "box",
						"rect" : [ 0.0, 26.0, 1146.0, 851.0 ],
						"openrect" : [ 0.0, 0.0, 1040.0, 740.0 ],
						"gridsize" : [ 15.0, 15.0 ],
						"showontab" : 1,
						"integercoordinates" : 1,
						"boxes" : [ 							{
								"box" : 								{
									"hidden" : 1,
									"id" : "obj-89",
									"maxclass" : "newobj",
									"numinlets" : 1,
									"numoutlets" : 1,
									"outlettype" : [ "" ],
									"patching_rect" : [ 514.0, 428.0, 77.0, 22.0 ],
									"text" : "loadmess 10"
								}

							}
, 							{
								"box" : 								{
									"id" : "obj-88",
									"linecount" : 5,
									"maxclass" : "comment",
									"numinlets" : 1,
									"numoutlets" : 0,
									"patching_rect" : [ 290.0, 452.0, 144.0, 74.0 ],
									"text" : "note: roughly equivalent! In the polyphonic case, @autoreset 1 will only reset the voices that actually change:",
									"textcolor" : [ 0.647058823529412, 0.647058823529412, 0.647058823529412, 1.0 ]
								}

							}
, 							{
								"box" : 								{
									"id" : "obj-85",
									"maxclass" : "comment",
									"numinlets" : 1,
									"numoutlets" : 0,
									"patching_rect" : [ 220.0, 676.0, 165.0, 20.0 ],
									"text" : "(both of the above combined)",
									"textcolor" : [ 0.647058823529412, 0.647058823529412, 0.647058823529412, 1.0 ]
								}

							}
, 							{
								"box" : 								{
									"id" : "obj-84",
									"maxclass" : "comment",
									"numinlets" : 1,
									"numoutlets" : 0,
									"patching_rect" : [ 180.0, 676.0, 23.0, 20.0 ],
									"text" : "=="
								}

							}
, 							{
								"box" : 								{
									"id" : "obj-81",
									"maxclass" : "newobj",
									"numinlets" : 4,
									"numoutlets" : 3,
									"outlettype" : [ "", "", "" ],
									"patching_rect" : [ 32.0, 675.0, 132.0, 22.0 ],
									"text" : "ser.index @autoreset 3"
								}

							}
, 							{
								"box" : 								{
									"bubble" : 1,
									"id" : "obj-78",
									"linecount" : 2,
									"maxclass" : "comment",
									"numinlets" : 1,
									"numoutlets" : 0,
									"patching_rect" : [ 120.0, 225.0, 174.0, 37.0 ],
									"text" : "The rightmost inlet triggers a reset on next pulse/bang"
								}

							}
, 							{
								"box" : 								{
									"bgmode" : 0,
									"border" : 0,
									"clickthrough" : 0,
									"enablehscroll" : 0,
									"enablevscroll" : 0,
									"id" : "obj-68",
									"lockeddragscroll" : 0,
									"lockedsize" : 0,
									"maxclass" : "bpatcher",
									"name" : "ser.indexview.ui.maxpat",
									"numinlets" : 1,
									"numoutlets" : 0,
									"offset" : [ 0.0, 0.0 ],
									"patching_rect" : [ 377.0, 290.0, 57.0, 32.0 ],
									"viewvisibility" : 1
								}

							}
, 							{
								"box" : 								{
									"bubble" : 1,
									"id" : "obj-69",
									"linecount" : 2,
									"maxclass" : "comment",
									"numinlets" : 1,
									"numoutlets" : 0,
									"patching_rect" : [ 403.0, 195.0, 110.0, 37.0 ],
									"text" : "negative stride: reset to N - 1"
								}

							}
, 							{
								"box" : 								{
									"id" : "obj-70",
									"maxclass" : "button",
									"numinlets" : 1,
									"numoutlets" : 1,
									"outlettype" : [ "bang" ],
									"parameter_enable" : 0,
									"patching_rect" : [ 377.0, 201.0, 24.0, 24.0 ]
								}

							}
, 							{
								"box" : 								{
									"id" : "obj-71",
									"maxclass" : "number",
									"numinlets" : 1,
									"numoutlets" : 2,
									"outlettype" : [ "", "bang" ],
									"parameter_enable" : 0,
									"patching_rect" : [ 316.0, 289.0, 50.0, 22.0 ]
								}

							}
, 							{
								"box" : 								{
									"id" : "obj-72",
									"maxclass" : "button",
									"numinlets" : 1,
									"numoutlets" : 1,
									"outlettype" : [ "bang" ],
									"parameter_enable" : 0,
									"patching_rect" : [ 316.0, 201.0, 24.0, 24.0 ]
								}

							}
, 							{
								"box" : 								{
									"id" : "obj-73",
									"linecount" : 2,
									"maxclass" : "newobj",
									"numinlets" : 4,
									"numoutlets" : 3,
									"outlettype" : [ "", "", "" ],
									"patching_rect" : [ 316.0, 248.0, 80.0, 35.0 ],
									"text" : "ser.index 10 @stride -1"
								}

							}
, 							{
								"box" : 								{
									"id" : "obj-67",
									"linecount" : 2,
									"maxclass" : "comment",
									"numinlets" : 1,
									"numoutlets" : 0,
									"patching_rect" : [ 17.0, 387.0, 334.0, 33.0 ],
									"text" : "The @autoreset attribute is just a convenience attribute for common use cases. The following are (roughly) equivalent:"
								}

							}
, 							{
								"box" : 								{
									"bubble" : 1,
									"id" : "obj-66",
									"linecount" : 3,
									"maxclass" : "comment",
									"numinlets" : 1,
									"numoutlets" : 0,
									"patching_rect" : [ 570.0, 452.0, 150.0, 51.0 ],
									"text" : "only the 2nd voice's size changes => only the 2nd voice resets"
								}

							}
, 							{
								"box" : 								{
									"id" : "obj-64",
									"maxclass" : "newobj",
									"numinlets" : 2,
									"numoutlets" : 2,
									"outlettype" : [ "", "" ],
									"patching_rect" : [ 444.0, 498.0, 57.0, 22.0 ],
									"text" : "ser.pulse"
								}

							}
, 							{
								"box" : 								{
									"id" : "obj-63",
									"maxclass" : "newobj",
									"numinlets" : 3,
									"numoutlets" : 2,
									"outlettype" : [ "", "" ],
									"patching_rect" : [ 444.0, 467.0, 61.0, 22.0 ],
									"text" : "ser.phase"
								}

							}
, 							{
								"box" : 								{
									"bgmode" : 0,
									"border" : 0,
									"clickthrough" : 0,
									"enablehscroll" : 0,
									"enablevscroll" : 0,
									"id" : "obj-59",
									"lockeddragscroll" : 0,
									"lockedsize" : 0,
									"maxclass" : "bpatcher",
									"name" : "ser.indexview.ui.maxpat",
									"numinlets" : 1,
									"numoutlets" : 0,
									"offset" : [ 0.0, 0.0 ],
									"patching_rect" : [ 557.0, 555.0, 57.0, 32.0 ],
									"viewvisibility" : 1
								}

							}
, 							{
								"box" : 								{
									"id" : "obj-58",
									"maxclass" : "number",
									"numinlets" : 1,
									"numoutlets" : 2,
									"outlettype" : [ "", "bang" ],
									"parameter_enable" : 0,
									"patching_rect" : [ 514.0, 466.0, 50.0, 22.0 ]
								}

							}
, 							{
								"box" : 								{
									"id" : "obj-55",
									"maxclass" : "message",
									"numinlets" : 2,
									"numoutlets" : 1,
									"outlettype" : [ "" ],
									"patching_rect" : [ 514.0, 498.0, 39.0, 22.0 ],
									"text" : "10 $1"
								}

							}
, 							{
								"box" : 								{
									"id" : "obj-53",
									"maxclass" : "newobj",
									"numinlets" : 4,
									"numoutlets" : 3,
									"outlettype" : [ "", "", "" ],
									"patching_rect" : [ 444.0, 528.0, 132.0, 22.0 ],
									"text" : "ser.index @autoreset 1"
								}

							}
, 							{
								"box" : 								{
									"id" : "obj-50",
									"maxclass" : "newobj",
									"numinlets" : 2,
									"numoutlets" : 2,
									"outlettype" : [ "bang", "" ],
									"patching_rect" : [ 258.0, 591.0, 34.0, 22.0 ],
									"text" : "sel 1"
								}

							}
, 							{
								"box" : 								{
									"id" : "obj-49",
									"maxclass" : "newobj",
									"numinlets" : 3,
									"numoutlets" : 8,
									"outlettype" : [ "", "", "", "", "", "", "", "" ],
									"patching_rect" : [ 220.0, 557.0, 93.0, 22.0 ],
									"text" : "ser.transport"
								}

							}
, 							{
								"box" : 								{
									"id" : "obj-46",
									"maxclass" : "newobj",
									"numinlets" : 4,
									"numoutlets" : 3,
									"outlettype" : [ "", "", "" ],
									"patching_rect" : [ 220.0, 622.0, 57.0, 22.0 ],
									"text" : "ser.index"
								}

							}
, 							{
								"box" : 								{
									"id" : "obj-47",
									"maxclass" : "comment",
									"numinlets" : 1,
									"numoutlets" : 0,
									"patching_rect" : [ 180.0, 623.0, 23.0, 20.0 ],
									"text" : "=="
								}

							}
, 							{
								"box" : 								{
									"id" : "obj-48",
									"maxclass" : "newobj",
									"numinlets" : 4,
									"numoutlets" : 3,
									"outlettype" : [ "", "", "" ],
									"patching_rect" : [ 32.0, 622.0, 132.0, 22.0 ],
									"text" : "ser.index @autoreset 2"
								}

							}
, 							{
								"box" : 								{
									"id" : "obj-36",
									"linecount" : 9,
									"maxclass" : "comment",
									"numinlets" : 1,
									"numoutlets" : 0,
									"patching_rect" : [ 472.0, 596.0, 251.0, 127.0 ],
									"text" : "- 0 (none, default): no autoreset\n\n- 1 (steps): reset when the number of steps changes (per voice)\n\n- 2 (transport): reset when transport activates\n\n- 3 (both): reset when either number of steps changes or transport activates",
									"textcolor" : [ 0.647058823529412, 0.647058823529412, 0.647058823529412, 1.0 ]
								}

							}
, 							{
								"box" : 								{
									"id" : "obj-35",
									"maxclass" : "number",
									"numinlets" : 1,
									"numoutlets" : 2,
									"outlettype" : [ "", "bang" ],
									"parameter_enable" : 0,
									"patching_rect" : [ 233.0, 435.0, 50.0, 22.0 ]
								}

							}
, 							{
								"box" : 								{
									"id" : "obj-33",
									"maxclass" : "newobj",
									"numinlets" : 1,
									"numoutlets" : 2,
									"outlettype" : [ "int", "bang" ],
									"patching_rect" : [ 233.0, 467.0, 44.0, 22.0 ],
									"text" : "t i b"
								}

							}
, 							{
								"box" : 								{
									"id" : "obj-32",
									"maxclass" : "newobj",
									"numinlets" : 4,
									"numoutlets" : 3,
									"outlettype" : [ "", "", "" ],
									"patching_rect" : [ 220.0, 504.0, 57.0, 22.0 ],
									"text" : "ser.index"
								}

							}
, 							{
								"box" : 								{
									"id" : "obj-31",
									"maxclass" : "comment",
									"numinlets" : 1,
									"numoutlets" : 0,
									"patching_rect" : [ 180.0, 505.0, 23.0, 20.0 ],
									"text" : "=="
								}

							}
, 							{
								"box" : 								{
									"id" : "obj-22",
									"maxclass" : "newobj",
									"numinlets" : 4,
									"numoutlets" : 3,
									"outlettype" : [ "", "", "" ],
									"patching_rect" : [ 32.0, 504.0, 132.0, 22.0 ],
									"text" : "ser.index @autoreset 1"
								}

							}
, 							{
								"box" : 								{
									"bgmode" : 0,
									"border" : 0,
									"clickthrough" : 0,
									"enablehscroll" : 0,
									"enablevscroll" : 0,
									"id" : "obj-5",
									"lockeddragscroll" : 0,
									"lockedsize" : 0,
									"maxclass" : "bpatcher",
									"name" : "ser.indexview.ui.maxpat",
									"numinlets" : 1,
									"numoutlets" : 0,
									"offset" : [ 0.0, 0.0 ],
									"patching_rect" : [ 93.0, 283.0, 57.0, 32.0 ],
									"viewvisibility" : 1
								}

							}
, 							{
								"box" : 								{
									"bubble" : 1,
									"bubblepoint" : 0.8,
									"id" : "obj-7",
									"linecount" : 2,
									"maxclass" : "comment",
									"numinlets" : 1,
									"numoutlets" : 0,
									"patching_rect" : [ 120.0, 182.0, 106.0, 37.0 ],
									"text" : "positive stride: reset to 0"
								}

							}
, 							{
								"box" : 								{
									"id" : "obj-13",
									"maxclass" : "button",
									"numinlets" : 1,
									"numoutlets" : 1,
									"outlettype" : [ "bang" ],
									"parameter_enable" : 0,
									"patching_rect" : [ 93.0, 201.0, 24.0, 24.0 ]
								}

							}
, 							{
								"box" : 								{
									"id" : "obj-10",
									"maxclass" : "number",
									"numinlets" : 1,
									"numoutlets" : 2,
									"outlettype" : [ "", "bang" ],
									"parameter_enable" : 0,
									"patching_rect" : [ 32.0, 282.0, 50.0, 22.0 ]
								}

							}
, 							{
								"box" : 								{
									"id" : "obj-6",
									"maxclass" : "button",
									"numinlets" : 1,
									"numoutlets" : 1,
									"outlettype" : [ "bang" ],
									"parameter_enable" : 0,
									"patching_rect" : [ 32.0, 201.0, 24.0, 24.0 ]
								}

							}
, 							{
								"box" : 								{
									"id" : "obj-4",
									"linecount" : 2,
									"maxclass" : "newobj",
									"numinlets" : 4,
									"numoutlets" : 3,
									"outlettype" : [ "", "", "" ],
									"patching_rect" : [ 32.0, 241.0, 80.0, 35.0 ],
									"text" : "ser.index 10 @stride 1"
								}

							}
, 							{
								"box" : 								{
									"border" : 0,
									"filename" : "helpdetails.js",
									"id" : "obj-2",
									"ignoreclick" : 1,
									"jsarguments" : [ "ser.index" ],
									"maxclass" : "jsui",
									"nofsaa" : 1,
									"numinlets" : 1,
									"numoutlets" : 1,
									"outlettype" : [ "" ],
									"parameter_enable" : 0,
									"patching_rect" : [ 10.0, 10.0, 895.0, 120.0 ]
								}

							}
, 							{
								"box" : 								{
									"id" : "obj-3",
									"maxclass" : "ezdac~",
									"numinlets" : 2,
									"numoutlets" : 0,
									"patching_rect" : [ 865.0, 473.0, 45.0, 45.0 ]
								}

							}
, 							{
								"box" : 								{
									"bgmode" : 0,
									"border" : 0,
									"clickthrough" : 0,
									"enablehscroll" : 0,
									"enablevscroll" : 0,
									"id" : "obj-1",
									"lockeddragscroll" : 0,
									"lockedsize" : 0,
									"maxclass" : "bpatcher",
									"name" : "ser.transport.ui.maxpat",
									"numinlets" : 3,
									"numoutlets" : 9,
									"offset" : [ 0.0, 0.0 ],
									"outlettype" : [ "", "", "", "", "", "", "", "", "signal" ],
									"patching_rect" : [ 727.0, 186.0, 178.0, 269.0 ],
									"varname" : "ser.transport.ui",
									"viewvisibility" : 1
								}

							}
, 							{
								"box" : 								{
									"angle" : 270.0,
									"bgcolor" : [ 0.172137149796092, 0.172137100044002, 0.172137113045018, 0.0 ],
									"border" : 1,
									"bordercolor" : [ 0.647058823529412, 0.647058823529412, 0.647058823529412, 1.0 ],
									"id" : "obj-51",
									"maxclass" : "panel",
									"mode" : 0,
									"numinlets" : 1,
									"numoutlets" : 0,
									"patching_rect" : [ 17.0, 422.0, 708.0, 307.0 ],
									"proportion" : 0.5,
									"rounded" : 0
								}

							}
, 							{
								"box" : 								{
									"background" : 1,
									"bgcolor" : [ 0.9, 0.65, 0.05, 1.0 ],
									"fontface" : 1,
									"hint" : "",
									"id" : "obj-12",
									"ignoreclick" : 1,
									"legacytextcolor" : 1,
									"maxclass" : "textbutton",
									"numinlets" : 1,
									"numoutlets" : 3,
									"outlettype" : [ "", "", "int" ],
									"parameter_enable" : 0,
									"patching_rect" : [ 695.0, 213.0, 20.0, 20.0 ],
									"rounded" : 60.0,
									"saved_attribute_attributes" : 									{
										"bgcolor" : 										{
											"expression" : "themecolor.lesson_step_circle"
										}

									}
,
									"text" : "1",
									"textcolor" : [ 0.34902, 0.34902, 0.34902, 1.0 ]
								}

							}
 ],
						"lines" : [ 							{
								"patchline" : 								{
									"destination" : [ "obj-3", 1 ],
									"order" : 0,
									"source" : [ "obj-1", 8 ]
								}

							}
, 							{
								"patchline" : 								{
									"destination" : [ "obj-3", 0 ],
									"order" : 1,
									"source" : [ "obj-1", 8 ]
								}

							}
, 							{
								"patchline" : 								{
									"destination" : [ "obj-4", 3 ],
									"order" : 0,
									"source" : [ "obj-13", 0 ]
								}

							}
, 							{
								"patchline" : 								{
									"destination" : [ "obj-4", 0 ],
									"order" : 1,
									"source" : [ "obj-13", 0 ]
								}

							}
, 							{
								"patchline" : 								{
									"destination" : [ "obj-32", 3 ],
									"source" : [ "obj-33", 1 ]
								}

							}
, 							{
								"patchline" : 								{
									"destination" : [ "obj-32", 1 ],
									"source" : [ "obj-33", 0 ]
								}

							}
, 							{
								"patchline" : 								{
									"destination" : [ "obj-33", 0 ],
									"source" : [ "obj-35", 0 ]
								}

							}
, 							{
								"patchline" : 								{
									"destination" : [ "obj-10", 0 ],
									"source" : [ "obj-4", 0 ]
								}

							}
, 							{
								"patchline" : 								{
									"destination" : [ "obj-5", 0 ],
									"source" : [ "obj-4", 1 ]
								}

							}
, 							{
								"patchline" : 								{
									"destination" : [ "obj-50", 0 ],
									"midpoints" : [ 292.928571428571445, 584.5, 267.5, 584.5 ],
									"source" : [ "obj-49", 6 ]
								}

							}
, 							{
								"patchline" : 								{
									"destination" : [ "obj-46", 3 ],
									"source" : [ "obj-50", 0 ]
								}

							}
, 							{
								"patchline" : 								{
									"destination" : [ "obj-59", 0 ],
									"source" : [ "obj-53", 1 ]
								}

							}
, 							{
								"patchline" : 								{
									"destination" : [ "obj-53", 1 ],
									"source" : [ "obj-55", 0 ]
								}

							}
, 							{
								"patchline" : 								{
									"destination" : [ "obj-55", 0 ],
									"source" : [ "obj-58", 0 ]
								}

							}
, 							{
								"patchline" : 								{
									"destination" : [ "obj-4", 0 ],
									"source" : [ "obj-6", 0 ]
								}

							}
, 							{
								"patchline" : 								{
									"destination" : [ "obj-64", 0 ],
									"source" : [ "obj-63", 0 ]
								}

							}
, 							{
								"patchline" : 								{
									"destination" : [ "obj-53", 0 ],
									"source" : [ "obj-64", 0 ]
								}

							}
, 							{
								"patchline" : 								{
									"destination" : [ "obj-73", 3 ],
									"order" : 0,
									"source" : [ "obj-70", 0 ]
								}

							}
, 							{
								"patchline" : 								{
									"destination" : [ "obj-73", 0 ],
									"order" : 1,
									"source" : [ "obj-70", 0 ]
								}

							}
, 							{
								"patchline" : 								{
									"destination" : [ "obj-73", 0 ],
									"source" : [ "obj-72", 0 ]
								}

							}
, 							{
								"patchline" : 								{
									"destination" : [ "obj-68", 0 ],
									"source" : [ "obj-73", 1 ]
								}

							}
, 							{
								"patchline" : 								{
									"destination" : [ "obj-71", 0 ],
									"source" : [ "obj-73", 0 ]
								}

							}
, 							{
								"patchline" : 								{
									"destination" : [ "obj-58", 0 ],
									"hidden" : 1,
									"source" : [ "obj-89", 0 ]
								}

							}
 ],
						"originid" : "pat-115"
					}
,
					"patching_rect" : [ 86.0, 20.0, 45.0, 22.0 ],
					"text" : "p reset",
					"varname" : "basic[3]"
				}

			}
, 			{
				"box" : 				{
					"id" : "obj-3",
					"maxclass" : "newobj",
					"numinlets" : 0,
					"numoutlets" : 0,
					"patcher" : 					{
						"fileversion" : 1,
						"appversion" : 						{
							"major" : 9,
							"minor" : 0,
							"revision" : 5,
							"architecture" : "x64",
							"modernui" : 1
						}
,
						"classnamespace" : "box",
						"rect" : [ 0.0, 26.0, 1146.0, 851.0 ],
						"openrect" : [ 0.0, 0.0, 1040.0, 740.0 ],
						"gridsize" : [ 15.0, 15.0 ],
						"showontab" : 1,
						"integercoordinates" : 1,
						"boxes" : [ 							{
								"box" : 								{
									"id" : "obj-38",
									"maxclass" : "message",
									"numinlets" : 2,
									"numoutlets" : 1,
									"outlettype" : [ "" ],
									"patching_rect" : [ 531.0, 374.0, 172.0, 22.0 ],
									"text" : "loadunique ser.pulse.maxhelp"
								}

							}
, 							{
								"box" : 								{
									"hidden" : 1,
									"id" : "obj-36",
									"maxclass" : "newobj",
									"numinlets" : 1,
									"numoutlets" : 1,
									"outlettype" : [ "" ],
									"patching_rect" : [ 568.0, 418.0, 51.0, 22.0 ],
									"text" : "pcontrol"
								}

							}
, 							{
								"box" : 								{
									"id" : "obj-35",
									"linecount" : 3,
									"maxclass" : "comment",
									"numinlets" : 1,
									"numoutlets" : 0,
									"patching_rect" : [ 542.0, 322.0, 150.0, 47.0 ],
									"text" : "Note: we're emulating pulse format here. See ser.pulse for details",
									"textcolor" : [ 0.647058823529412, 0.647058823529412, 0.647058823529412, 1.0 ]
								}

							}
, 							{
								"box" : 								{
									"bubble" : 1,
									"id" : "obj-31",
									"linecount" : 2,
									"maxclass" : "comment",
									"numinlets" : 1,
									"numoutlets" : 0,
									"patching_rect" : [ 542.0, 276.0, 169.0, 37.0 ],
									"text" : "reset all voices (on their corresponding next trigger)"
								}

							}
, 							{
								"box" : 								{
									"id" : "obj-25",
									"maxclass" : "button",
									"numinlets" : 1,
									"numoutlets" : 1,
									"outlettype" : [ "bang" ],
									"parameter_enable" : 0,
									"patching_rect" : [ 513.0, 282.0, 24.0, 24.0 ]
								}

							}
, 							{
								"box" : 								{
									"id" : "obj-24",
									"maxclass" : "message",
									"numinlets" : 2,
									"numoutlets" : 1,
									"outlettype" : [ "" ],
									"patching_rect" : [ 490.0, 245.0, 91.0, 22.0 ],
									"text" : "1 1 null null null"
								}

							}
, 							{
								"box" : 								{
									"bubble" : 1,
									"bubbleside" : 2,
									"id" : "obj-22",
									"linecount" : 2,
									"maxclass" : "comment",
									"numinlets" : 1,
									"numoutlets" : 0,
									"patching_rect" : [ 486.0, 181.0, 153.0, 52.0 ],
									"text" : "resetting inidividual voices (here: only the two first)"
								}

							}
, 							{
								"box" : 								{
									"id" : "obj-18",
									"maxclass" : "message",
									"numinlets" : 2,
									"numoutlets" : 1,
									"outlettype" : [ "" ],
									"patching_rect" : [ 199.0, 245.0, 75.0, 22.0 ],
									"text" : "3 6 12 24 48"
								}

							}
, 							{
								"box" : 								{
									"id" : "obj-17",
									"maxclass" : "message",
									"numinlets" : 2,
									"numoutlets" : 1,
									"outlettype" : [ "" ],
									"patching_rect" : [ 360.0, 271.0, 30.0, 22.0 ],
									"text" : "1"
								}

							}
, 							{
								"box" : 								{
									"bubble" : 1,
									"bubbleside" : 2,
									"id" : "obj-13",
									"maxclass" : "comment",
									"numinlets" : 1,
									"numoutlets" : 0,
									"patching_rect" : [ 334.0, 193.0, 92.0, 39.0 ],
									"text" : "multiple strides"
								}

							}
, 							{
								"box" : 								{
									"id" : "obj-11",
									"maxclass" : "message",
									"numinlets" : 2,
									"numoutlets" : 1,
									"outlettype" : [ "" ],
									"patching_rect" : [ 345.0, 239.0, 59.0, 22.0 ],
									"text" : "1 1 -1 2.5"
								}

							}
, 							{
								"box" : 								{
									"id" : "obj-8",
									"maxclass" : "message",
									"numinlets" : 2,
									"numoutlets" : 1,
									"outlettype" : [ "" ],
									"patching_rect" : [ 216.0, 271.0, 42.0, 22.0 ],
									"text" : "2 3 10"
								}

							}
, 							{
								"box" : 								{
									"hidden" : 1,
									"id" : "obj-7",
									"maxclass" : "newobj",
									"numinlets" : 1,
									"numoutlets" : 1,
									"outlettype" : [ "bang" ],
									"patching_rect" : [ 285.0, 159.0, 58.0, 22.0 ],
									"text" : "loadbang"
								}

							}
, 							{
								"box" : 								{
									"bgmode" : 0,
									"border" : 0,
									"clickthrough" : 0,
									"enablehscroll" : 0,
									"enablevscroll" : 0,
									"id" : "obj-5",
									"lockeddragscroll" : 0,
									"lockedsize" : 0,
									"maxclass" : "bpatcher",
									"name" : "ser.indexview.ui.maxpat",
									"numinlets" : 1,
									"numoutlets" : 0,
									"offset" : [ 0.0, 0.0 ],
									"patching_rect" : [ 447.0, 391.0, 57.0, 32.0 ],
									"viewvisibility" : 1
								}

							}
, 							{
								"box" : 								{
									"id" : "obj-10",
									"maxclass" : "message",
									"numinlets" : 2,
									"numoutlets" : 1,
									"outlettype" : [ "" ],
									"patching_rect" : [ 228.0, 299.0, 30.0, 22.0 ],
									"text" : "12"
								}

							}
, 							{
								"box" : 								{
									"bubble" : 1,
									"bubbleside" : 2,
									"id" : "obj-30",
									"linecount" : 2,
									"maxclass" : "comment",
									"numinlets" : 1,
									"numoutlets" : 0,
									"patching_rect" : [ 179.0, 186.0, 104.0, 52.0 ],
									"text" : "multiple number of steps"
								}

							}
, 							{
								"box" : 								{
									"bubble" : 1,
									"bubblepoint" : 0.6,
									"bubbleside" : 2,
									"id" : "obj-29",
									"linecount" : 2,
									"maxclass" : "comment",
									"numinlets" : 1,
									"numoutlets" : 0,
									"patching_rect" : [ 49.0, 186.0, 101.0, 52.0 ],
									"text" : "multiple triggers (asynchronous)"
								}

							}
, 							{
								"box" : 								{
									"id" : "obj-28",
									"maxclass" : "message",
									"numinlets" : 2,
									"numoutlets" : 1,
									"outlettype" : [ "" ],
									"patching_rect" : [ 54.0, 245.0, 30.0, 22.0 ],
									"text" : "1"
								}

							}
, 							{
								"box" : 								{
									"id" : "obj-27",
									"maxclass" : "message",
									"numinlets" : 2,
									"numoutlets" : 1,
									"outlettype" : [ "" ],
									"patching_rect" : [ 96.0, 245.0, 45.0, 22.0 ],
									"text" : "0.5 1 2"
								}

							}
, 							{
								"box" : 								{
									"id" : "obj-21",
									"maxclass" : "message",
									"numinlets" : 2,
									"numoutlets" : 1,
									"outlettype" : [ "" ],
									"patching_rect" : [ 54.0, 396.0, 80.0, 22.0 ],
									"text" : "9"
								}

							}
, 							{
								"box" : 								{
									"id" : "obj-19",
									"maxclass" : "newobj",
									"numinlets" : 2,
									"numoutlets" : 2,
									"outlettype" : [ "", "" ],
									"patching_rect" : [ 54.0, 326.0, 57.0, 22.0 ],
									"text" : "ser.pulse"
								}

							}
, 							{
								"box" : 								{
									"id" : "obj-16",
									"linecount" : 2,
									"maxclass" : "newobj",
									"numinlets" : 3,
									"numoutlets" : 2,
									"outlettype" : [ "", "" ],
									"patching_rect" : [ 54.0, 282.0, 69.0, 35.0 ],
									"text" : "ser.phase @period 1"
								}

							}
, 							{
								"box" : 								{
									"id" : "obj-9",
									"maxclass" : "comment",
									"numinlets" : 1,
									"numoutlets" : 0,
									"patching_rect" : [ 21.0, 132.0, 187.0, 20.0 ],
									"text" : "Broadcasting applies to all inlets"
								}

							}
, 							{
								"box" : 								{
									"id" : "obj-4",
									"maxclass" : "newobj",
									"numinlets" : 4,
									"numoutlets" : 3,
									"outlettype" : [ "", "", "" ],
									"patching_rect" : [ 54.0, 356.0, 455.0, 22.0 ],
									"text" : "ser.index"
								}

							}
, 							{
								"box" : 								{
									"border" : 0,
									"filename" : "helpdetails.js",
									"id" : "obj-2",
									"ignoreclick" : 1,
									"jsarguments" : [ "ser.index" ],
									"maxclass" : "jsui",
									"nofsaa" : 1,
									"numinlets" : 1,
									"numoutlets" : 1,
									"outlettype" : [ "" ],
									"parameter_enable" : 0,
									"patching_rect" : [ 10.0, 10.0, 895.0, 120.0 ]
								}

							}
, 							{
								"box" : 								{
									"id" : "obj-3",
									"maxclass" : "ezdac~",
									"numinlets" : 2,
									"numoutlets" : 0,
									"patching_rect" : [ 865.0, 473.0, 45.0, 45.0 ]
								}

							}
, 							{
								"box" : 								{
									"bgmode" : 0,
									"border" : 0,
									"clickthrough" : 0,
									"enablehscroll" : 0,
									"enablevscroll" : 0,
									"id" : "obj-1",
									"lockeddragscroll" : 0,
									"lockedsize" : 0,
									"maxclass" : "bpatcher",
									"name" : "ser.transport.ui.maxpat",
									"numinlets" : 3,
									"numoutlets" : 9,
									"offset" : [ 0.0, 0.0 ],
									"outlettype" : [ "", "", "", "", "", "", "", "", "signal" ],
									"patching_rect" : [ 727.0, 186.0, 178.0, 269.0 ],
									"varname" : "ser.transport.ui",
									"viewvisibility" : 1
								}

							}
, 							{
								"box" : 								{
									"background" : 1,
									"bgcolor" : [ 0.9, 0.65, 0.05, 1.0 ],
									"fontface" : 1,
									"hint" : "",
									"id" : "obj-12",
									"ignoreclick" : 1,
									"legacytextcolor" : 1,
									"maxclass" : "textbutton",
									"numinlets" : 1,
									"numoutlets" : 3,
									"outlettype" : [ "", "", "int" ],
									"parameter_enable" : 0,
									"patching_rect" : [ 695.0, 213.0, 20.0, 20.0 ],
									"rounded" : 60.0,
									"saved_attribute_attributes" : 									{
										"bgcolor" : 										{
											"expression" : "themecolor.lesson_step_circle"
										}

									}
,
									"text" : "1",
									"textcolor" : [ 0.34902, 0.34902, 0.34902, 1.0 ]
								}

							}
 ],
						"lines" : [ 							{
								"patchline" : 								{
									"destination" : [ "obj-3", 1 ],
									"order" : 0,
									"source" : [ "obj-1", 8 ]
								}

							}
, 							{
								"patchline" : 								{
									"destination" : [ "obj-3", 0 ],
									"order" : 1,
									"source" : [ "obj-1", 8 ]
								}

							}
, 							{
								"patchline" : 								{
									"destination" : [ "obj-4", 1 ],
									"source" : [ "obj-10", 0 ]
								}

							}
, 							{
								"patchline" : 								{
									"destination" : [ "obj-4", 2 ],
									"source" : [ "obj-11", 0 ]
								}

							}
, 							{
								"patchline" : 								{
									"destination" : [ "obj-19", 0 ],
									"source" : [ "obj-16", 0 ]
								}

							}
, 							{
								"patchline" : 								{
									"destination" : [ "obj-4", 2 ],
									"source" : [ "obj-17", 0 ]
								}

							}
, 							{
								"patchline" : 								{
									"destination" : [ "obj-4", 1 ],
									"source" : [ "obj-18", 0 ]
								}

							}
, 							{
								"patchline" : 								{
									"destination" : [ "obj-4", 0 ],
									"source" : [ "obj-19", 0 ]
								}

							}
, 							{
								"patchline" : 								{
									"destination" : [ "obj-4", 3 ],
									"source" : [ "obj-24", 0 ]
								}

							}
, 							{
								"patchline" : 								{
									"destination" : [ "obj-4", 3 ],
									"source" : [ "obj-25", 0 ]
								}

							}
, 							{
								"patchline" : 								{
									"destination" : [ "obj-16", 1 ],
									"source" : [ "obj-27", 0 ]
								}

							}
, 							{
								"patchline" : 								{
									"destination" : [ "obj-16", 1 ],
									"source" : [ "obj-28", 0 ]
								}

							}
, 							{
								"patchline" : 								{
									"destination" : [ "obj-36", 0 ],
									"hidden" : 1,
									"source" : [ "obj-38", 0 ]
								}

							}
, 							{
								"patchline" : 								{
									"destination" : [ "obj-21", 1 ],
									"midpoints" : [ 63.5, 387.0, 124.5, 387.0 ],
									"source" : [ "obj-4", 0 ]
								}

							}
, 							{
								"patchline" : 								{
									"destination" : [ "obj-5", 0 ],
									"midpoints" : [ 281.5, 384.5, 456.5, 384.5 ],
									"source" : [ "obj-4", 1 ]
								}

							}
, 							{
								"patchline" : 								{
									"destination" : [ "obj-10", 0 ],
									"hidden" : 1,
									"order" : 1,
									"source" : [ "obj-7", 0 ]
								}

							}
, 							{
								"patchline" : 								{
									"destination" : [ "obj-17", 0 ],
									"hidden" : 1,
									"order" : 0,
									"source" : [ "obj-7", 0 ]
								}

							}
, 							{
								"patchline" : 								{
									"destination" : [ "obj-4", 1 ],
									"source" : [ "obj-8", 0 ]
								}

							}
 ],
						"originid" : "pat-139"
					}
,
					"patching_rect" : [ 180.0, 20.0, 87.0, 22.0 ],
					"text" : "p broadcasting",
					"varname" : "basic[2]"
				}

			}
, 			{
				"box" : 				{
					"id" : "obj-2",
					"maxclass" : "newobj",
					"numinlets" : 0,
					"numoutlets" : 0,
					"patcher" : 					{
						"fileversion" : 1,
						"appversion" : 						{
							"major" : 9,
							"minor" : 0,
							"revision" : 5,
							"architecture" : "x64",
							"modernui" : 1
						}
,
						"classnamespace" : "box",
						"rect" : [ 0.0, 26.0, 1146.0, 851.0 ],
						"gridsize" : [ 15.0, 15.0 ],
						"showontab" : 1,
						"boxes" : [  ],
						"lines" : [  ],
						"originid" : "pat-159"
					}
,
					"patching_rect" : [ 383.0, 20.0, 25.0, 22.0 ],
					"text" : "p ?"
				}

			}
, 			{
				"box" : 				{
					"id" : "obj-1",
					"maxclass" : "newobj",
					"numinlets" : 0,
					"numoutlets" : 0,
					"patcher" : 					{
						"fileversion" : 1,
						"appversion" : 						{
							"major" : 9,
							"minor" : 0,
							"revision" : 5,
							"architecture" : "x64",
							"modernui" : 1
						}
,
						"classnamespace" : "box",
						"rect" : [ 100.0, 126.0, 1146.0, 851.0 ],
						"openrect" : [ 0.0, 0.0, 1040.0, 740.0 ],
						"gridsize" : [ 15.0, 15.0 ],
						"showontab" : 1,
						"integercoordinates" : 1,
						"boxes" : [ 							{
								"box" : 								{
									"id" : "obj-37",
									"maxclass" : "comment",
									"numinlets" : 1,
									"numoutlets" : 0,
									"patching_rect" : [ 726.0, 618.0, 23.0, 20.0 ],
									"text" : "=="
								}

							}
, 							{
								"box" : 								{
									"id" : "obj-39",
									"maxclass" : "newobj",
									"numinlets" : 4,
									"numoutlets" : 3,
									"outlettype" : [ "", "", "" ],
									"patching_rect" : [ 761.0, 617.0, 134.0, 22.0 ],
									"text" : "ser.index @steps 10 20"
								}

							}
, 							{
								"box" : 								{
									"id" : "obj-40",
									"maxclass" : "newobj",
									"numinlets" : 4,
									"numoutlets" : 3,
									"outlettype" : [ "", "", "" ],
									"patching_rect" : [ 628.0, 617.0, 90.0, 22.0 ],
									"text" : "ser.index 10 20"
								}

							}
, 							{
								"box" : 								{
									"id" : "obj-36",
									"maxclass" : "comment",
									"numinlets" : 1,
									"numoutlets" : 0,
									"patching_rect" : [ 726.0, 584.0, 23.0, 20.0 ],
									"text" : "=="
								}

							}
, 							{
								"box" : 								{
									"id" : "obj-31",
									"maxclass" : "comment",
									"numinlets" : 1,
									"numoutlets" : 0,
									"patching_rect" : [ 628.0, 550.0, 69.0, 20.0 ],
									"text" : "arguments:"
								}

							}
, 							{
								"box" : 								{
									"id" : "obj-26",
									"maxclass" : "newobj",
									"numinlets" : 4,
									"numoutlets" : 3,
									"outlettype" : [ "", "", "" ],
									"patching_rect" : [ 761.0, 583.0, 117.0, 22.0 ],
									"text" : "ser.index @steps 10"
								}

							}
, 							{
								"box" : 								{
									"id" : "obj-11",
									"maxclass" : "newobj",
									"numinlets" : 4,
									"numoutlets" : 3,
									"outlettype" : [ "", "", "" ],
									"patching_rect" : [ 628.0, 583.0, 73.0, 22.0 ],
									"text" : "ser.index 10"
								}

							}
, 							{
								"box" : 								{
									"bgmode" : 0,
									"border" : 0,
									"clickthrough" : 0,
									"enablehscroll" : 0,
									"enablevscroll" : 0,
									"id" : "obj-5",
									"lockeddragscroll" : 0,
									"lockedsize" : 0,
									"maxclass" : "bpatcher",
									"name" : "ser.indexview.ui.maxpat",
									"numinlets" : 1,
									"numoutlets" : 0,
									"offset" : [ 0.0, 0.0 ],
									"patching_rect" : [ 475.0, 380.0, 57.0, 32.0 ],
									"viewvisibility" : 1
								}

							}
, 							{
								"box" : 								{
									"bubble" : 1,
									"id" : "obj-46",
									"maxclass" : "comment",
									"numinlets" : 1,
									"numoutlets" : 0,
									"patching_rect" : [ 203.0, 379.0, 132.0, 24.0 ],
									"text" : "steps from 0 to N-1"
								}

							}
, 							{
								"box" : 								{
									"id" : "obj-38",
									"maxclass" : "message",
									"numinlets" : 2,
									"numoutlets" : 1,
									"outlettype" : [ "" ],
									"patching_rect" : [ 318.0, 224.0, 30.0, 22.0 ],
									"text" : "5"
								}

							}
, 							{
								"box" : 								{
									"id" : "obj-28",
									"maxclass" : "message",
									"numinlets" : 2,
									"numoutlets" : 1,
									"outlettype" : [ "" ],
									"patching_rect" : [ 286.0, 224.0, 30.0, 22.0 ],
									"text" : "2"
								}

							}
, 							{
								"box" : 								{
									"id" : "obj-27",
									"maxclass" : "message",
									"numinlets" : 2,
									"numoutlets" : 1,
									"outlettype" : [ "" ],
									"patching_rect" : [ 254.0, 224.0, 30.0, 22.0 ],
									"text" : "12"
								}

							}
, 							{
								"box" : 								{
									"bubble" : 1,
									"bubbleside" : 3,
									"id" : "obj-23",
									"linecount" : 2,
									"maxclass" : "comment",
									"numinlets" : 1,
									"numoutlets" : 0,
									"patching_rect" : [ 10.0, 276.0, 92.0, 37.0 ],
									"text" : "pulse or bang to step"
								}

							}
, 							{
								"box" : 								{
									"bubble" : 1,
									"bubbleside" : 3,
									"id" : "obj-22",
									"maxclass" : "comment",
									"numinlets" : 1,
									"numoutlets" : 0,
									"patching_rect" : [ 126.0, 223.0, 121.0, 24.0 ],
									"text" : "number of steps"
								}

							}
, 							{
								"box" : 								{
									"id" : "obj-21",
									"maxclass" : "message",
									"numinlets" : 2,
									"numoutlets" : 1,
									"outlettype" : [ "" ],
									"patching_rect" : [ 436.0, 224.0, 30.0, 22.0 ],
									"text" : "2"
								}

							}
, 							{
								"box" : 								{
									"id" : "obj-17",
									"maxclass" : "message",
									"numinlets" : 2,
									"numoutlets" : 1,
									"outlettype" : [ "" ],
									"patching_rect" : [ 472.0, 224.0, 30.0, 22.0 ],
									"text" : "1.5"
								}

							}
, 							{
								"box" : 								{
									"id" : "obj-16",
									"maxclass" : "message",
									"numinlets" : 2,
									"numoutlets" : 1,
									"outlettype" : [ "" ],
									"patching_rect" : [ 400.0, 224.0, 30.0, 22.0 ],
									"text" : "-1"
								}

							}
, 							{
								"box" : 								{
									"id" : "obj-14",
									"maxclass" : "message",
									"numinlets" : 2,
									"numoutlets" : 1,
									"outlettype" : [ "" ],
									"patching_rect" : [ 364.0, 224.0, 30.0, 22.0 ],
									"text" : "1"
								}

							}
, 							{
								"box" : 								{
									"bubble" : 1,
									"id" : "obj-8",
									"maxclass" : "comment",
									"numinlets" : 1,
									"numoutlets" : 0,
									"patching_rect" : [ 504.0, 223.0, 114.0, 24.0 ],
									"text" : "stride (step size)"
								}

							}
, 							{
								"box" : 								{
									"bubble" : 1,
									"id" : "obj-7",
									"linecount" : 2,
									"maxclass" : "comment",
									"numinlets" : 1,
									"numoutlets" : 0,
									"patching_rect" : [ 504.0, 293.0, 186.0, 37.0 ],
									"text" : "reset to min/max on next step (direction depends on stride)"
								}

							}
, 							{
								"box" : 								{
									"hidden" : 1,
									"id" : "obj-20",
									"maxclass" : "newobj",
									"numinlets" : 1,
									"numoutlets" : 1,
									"outlettype" : [ "bang" ],
									"patching_rect" : [ 415.0, 166.0, 58.0, 22.0 ],
									"text" : "loadbang"
								}

							}
, 							{
								"box" : 								{
									"hidden" : 1,
									"id" : "obj-19",
									"maxclass" : "newobj",
									"numinlets" : 1,
									"numoutlets" : 1,
									"outlettype" : [ "bang" ],
									"patching_rect" : [ 284.0, 147.0, 58.0, 22.0 ],
									"text" : "loadbang"
								}

							}
, 							{
								"box" : 								{
									"format" : 6,
									"id" : "obj-18",
									"maxclass" : "flonum",
									"numinlets" : 1,
									"numoutlets" : 2,
									"outlettype" : [ "", "bang" ],
									"parameter_enable" : 0,
									"patching_rect" : [ 364.0, 268.0, 50.0, 22.0 ]
								}

							}
, 							{
								"box" : 								{
									"id" : "obj-15",
									"maxclass" : "number",
									"numinlets" : 1,
									"numoutlets" : 2,
									"outlettype" : [ "", "bang" ],
									"parameter_enable" : 0,
									"patching_rect" : [ 254.0, 268.0, 50.0, 22.0 ]
								}

							}
, 							{
								"box" : 								{
									"id" : "obj-13",
									"maxclass" : "button",
									"numinlets" : 1,
									"numoutlets" : 1,
									"outlettype" : [ "bang" ],
									"parameter_enable" : 0,
									"patching_rect" : [ 475.0, 299.0, 24.0, 24.0 ]
								}

							}
, 							{
								"box" : 								{
									"id" : "obj-10",
									"maxclass" : "number",
									"numinlets" : 1,
									"numoutlets" : 2,
									"outlettype" : [ "", "bang" ],
									"parameter_enable" : 0,
									"patching_rect" : [ 143.0, 380.0, 50.0, 22.0 ]
								}

							}
, 							{
								"box" : 								{
									"id" : "obj-6",
									"maxclass" : "button",
									"numinlets" : 1,
									"numoutlets" : 1,
									"outlettype" : [ "bang" ],
									"parameter_enable" : 0,
									"patching_rect" : [ 143.0, 282.0, 24.0, 24.0 ]
								}

							}
, 							{
								"box" : 								{
									"id" : "obj-4",
									"maxclass" : "newobj",
									"numinlets" : 4,
									"numoutlets" : 3,
									"outlettype" : [ "", "", "" ],
									"patching_rect" : [ 143.0, 338.0, 351.0, 22.0 ],
									"text" : "ser.index"
								}

							}
, 							{
								"box" : 								{
									"border" : 0,
									"filename" : "helpdetails.js",
									"id" : "obj-2",
									"ignoreclick" : 1,
									"jsarguments" : [ "ser.index" ],
									"maxclass" : "jsui",
									"nofsaa" : 1,
									"numinlets" : 1,
									"numoutlets" : 1,
									"outlettype" : [ "" ],
									"parameter_enable" : 0,
									"patching_rect" : [ 10.0, 10.0, 895.0, 120.0 ]
								}

							}
, 							{
								"box" : 								{
									"id" : "obj-3",
									"maxclass" : "ezdac~",
									"numinlets" : 2,
									"numoutlets" : 0,
									"patching_rect" : [ 865.0, 473.0, 45.0, 45.0 ]
								}

							}
, 							{
								"box" : 								{
									"bgmode" : 0,
									"border" : 0,
									"clickthrough" : 0,
									"enablehscroll" : 0,
									"enablevscroll" : 0,
									"id" : "obj-1",
									"lockeddragscroll" : 0,
									"lockedsize" : 0,
									"maxclass" : "bpatcher",
									"name" : "ser.transport.ui.maxpat",
									"numinlets" : 3,
									"numoutlets" : 9,
									"offset" : [ 0.0, 0.0 ],
									"outlettype" : [ "", "", "", "", "", "", "", "", "signal" ],
									"patching_rect" : [ 727.0, 186.0, 178.0, 269.0 ],
									"varname" : "ser.transport.ui",
									"viewvisibility" : 1
								}

							}
, 							{
								"box" : 								{
									"angle" : 270.0,
									"bgcolor" : [ 0.172137149796092, 0.172137100044002, 0.172137113045018, 0.0 ],
									"border" : 1,
									"bordercolor" : [ 0.647058823529412, 0.647058823529412, 0.647058823529412, 1.0 ],
									"id" : "obj-51",
									"maxclass" : "panel",
									"mode" : 0,
									"numinlets" : 1,
									"numoutlets" : 0,
									"patching_rect" : [ 614.0, 543.0, 291.0, 113.0 ],
									"proportion" : 0.5,
									"rounded" : 0
								}

							}
, 							{
								"box" : 								{
									"background" : 1,
									"bgcolor" : [ 0.9, 0.65, 0.05, 1.0 ],
									"fontface" : 1,
									"hint" : "",
									"id" : "obj-12",
									"ignoreclick" : 1,
									"legacytextcolor" : 1,
									"maxclass" : "textbutton",
									"numinlets" : 1,
									"numoutlets" : 3,
									"outlettype" : [ "", "", "int" ],
									"parameter_enable" : 0,
									"patching_rect" : [ 695.0, 213.0, 20.0, 20.0 ],
									"rounded" : 60.0,
									"saved_attribute_attributes" : 									{
										"bgcolor" : 										{
											"expression" : "themecolor.lesson_step_circle"
										}

									}
,
									"text" : "1",
									"textcolor" : [ 0.34902, 0.34902, 0.34902, 1.0 ]
								}

							}
, 							{
								"box" : 								{
									"background" : 1,
									"bgcolor" : [ 0.9, 0.65, 0.05, 1.0 ],
									"fontface" : 1,
									"hint" : "",
									"id" : "obj-29",
									"ignoreclick" : 1,
									"legacytextcolor" : 1,
									"maxclass" : "textbutton",
									"numinlets" : 1,
									"numoutlets" : 3,
									"outlettype" : [ "", "", "int" ],
									"parameter_enable" : 0,
									"patching_rect" : [ 110.0, 285.0, 20.0, 20.0 ],
									"presentation" : 1,
									"presentation_rect" : [ 611.0, 146.0, 20.0, 20.0 ],
									"rounded" : 60.0,
									"saved_attribute_attributes" : 									{
										"bgcolor" : 										{
											"expression" : "themecolor.lesson_step_circle"
										}

									}
,
									"text" : "2",
									"textcolor" : [ 0.34902, 0.34902, 0.34902, 1.0 ]
								}

							}
 ],
						"lines" : [ 							{
								"patchline" : 								{
									"destination" : [ "obj-3", 1 ],
									"order" : 0,
									"source" : [ "obj-1", 8 ]
								}

							}
, 							{
								"patchline" : 								{
									"destination" : [ "obj-3", 0 ],
									"order" : 1,
									"source" : [ "obj-1", 8 ]
								}

							}
, 							{
								"patchline" : 								{
									"destination" : [ "obj-4", 3 ],
									"source" : [ "obj-13", 0 ]
								}

							}
, 							{
								"patchline" : 								{
									"destination" : [ "obj-18", 0 ],
									"midpoints" : [ 373.5, 257.0, 373.5, 257.0 ],
									"source" : [ "obj-14", 0 ]
								}

							}
, 							{
								"patchline" : 								{
									"destination" : [ "obj-4", 1 ],
									"source" : [ "obj-15", 0 ]
								}

							}
, 							{
								"patchline" : 								{
									"destination" : [ "obj-18", 0 ],
									"midpoints" : [ 409.5, 257.0, 373.5, 257.0 ],
									"source" : [ "obj-16", 0 ]
								}

							}
, 							{
								"patchline" : 								{
									"destination" : [ "obj-18", 0 ],
									"midpoints" : [ 481.5, 257.0, 373.5, 257.0 ],
									"source" : [ "obj-17", 0 ]
								}

							}
, 							{
								"patchline" : 								{
									"destination" : [ "obj-4", 2 ],
									"source" : [ "obj-18", 0 ]
								}

							}
, 							{
								"patchline" : 								{
									"destination" : [ "obj-27", 0 ],
									"hidden" : 1,
									"source" : [ "obj-19", 0 ]
								}

							}
, 							{
								"patchline" : 								{
									"destination" : [ "obj-14", 0 ],
									"hidden" : 1,
									"source" : [ "obj-20", 0 ]
								}

							}
, 							{
								"patchline" : 								{
									"destination" : [ "obj-18", 0 ],
									"midpoints" : [ 445.5, 257.0, 373.5, 257.0 ],
									"source" : [ "obj-21", 0 ]
								}

							}
, 							{
								"patchline" : 								{
									"destination" : [ "obj-15", 0 ],
									"midpoints" : [ 263.5, 257.0, 263.5, 257.0 ],
									"source" : [ "obj-27", 0 ]
								}

							}
, 							{
								"patchline" : 								{
									"destination" : [ "obj-15", 0 ],
									"midpoints" : [ 295.5, 257.0, 263.5, 257.0 ],
									"source" : [ "obj-28", 0 ]
								}

							}
, 							{
								"patchline" : 								{
									"destination" : [ "obj-15", 0 ],
									"midpoints" : [ 327.5, 257.0, 263.5, 257.0 ],
									"source" : [ "obj-38", 0 ]
								}

							}
, 							{
								"patchline" : 								{
									"destination" : [ "obj-10", 0 ],
									"source" : [ "obj-4", 0 ]
								}

							}
, 							{
								"patchline" : 								{
									"destination" : [ "obj-5", 0 ],
									"source" : [ "obj-4", 1 ]
								}

							}
, 							{
								"patchline" : 								{
									"destination" : [ "obj-4", 0 ],
									"source" : [ "obj-6", 0 ]
								}

							}
 ],
						"originid" : "pat-161"
					}
,
					"patching_rect" : [ 23.0, 20.0, 47.0, 22.0 ],
					"text" : "p basic",
					"varname" : "basic[1]"
				}

			}
 ],
		"lines" : [  ],
		"originid" : "pat-113",
		"parameters" : 		{
			"obj-1::obj-1::obj-113" : [ "live.text[272]", "live.text", 0 ],
			"obj-1::obj-1::obj-40" : [ "live.text", "live.text", 0 ],
			"obj-1::obj-1::obj-42" : [ "live.text[1]", "live.text", 0 ],
			"obj-1::obj-1::obj-48" : [ "live.text[2]", "live.text[2]", 0 ],
			"obj-1::obj-1::obj-87" : [ "live.gain~[3]", "live.gain~", 0 ],
			"obj-1::obj-1::obj-90" : [ "live.text[6]", "live.text[2]", 0 ],
			"obj-1::obj-1::obj-92" : [ "live.text[5]", "live.text[2]", 0 ],
			"obj-1::obj-1::obj-94" : [ "live.text[7]", "live.text[2]", 0 ],
			"obj-3::obj-1::obj-113" : [ "live.text[13]", "live.text", 0 ],
			"obj-3::obj-1::obj-40" : [ "live.text[11]", "live.text", 0 ],
			"obj-3::obj-1::obj-42" : [ "live.text[14]", "live.text", 0 ],
			"obj-3::obj-1::obj-48" : [ "live.text[17]", "live.text[2]", 0 ],
			"obj-3::obj-1::obj-87" : [ "live.gain~[4]", "live.gain~", 0 ],
			"obj-3::obj-1::obj-90" : [ "live.text[16]", "live.text[2]", 0 ],
			"obj-3::obj-1::obj-92" : [ "live.text[15]", "live.text[2]", 0 ],
			"obj-3::obj-1::obj-94" : [ "live.text[10]", "live.text[2]", 0 ],
			"obj-4::obj-1::obj-113" : [ "live.text[21]", "live.text", 0 ],
			"obj-4::obj-1::obj-40" : [ "live.text[22]", "live.text", 0 ],
			"obj-4::obj-1::obj-42" : [ "live.text[18]", "live.text", 0 ],
			"obj-4::obj-1::obj-48" : [ "live.text[20]", "live.text[2]", 0 ],
			"obj-4::obj-1::obj-87" : [ "live.gain~[5]", "live.gain~", 0 ],
			"obj-4::obj-1::obj-90" : [ "live.text[12]", "live.text[2]", 0 ],
			"obj-4::obj-1::obj-92" : [ "live.text[19]", "live.text[2]", 0 ],
			"obj-4::obj-1::obj-94" : [ "live.text[23]", "live.text[2]", 0 ],
			"parameterbanks" : 			{
				"0" : 				{
					"index" : 0,
					"name" : "",
					"parameters" : [ "-", "-", "-", "-", "-", "-", "-", "-" ]
				}

			}
,
			"parameter_overrides" : 			{
				"obj-1::obj-1::obj-113" : 				{
					"parameter_longname" : "live.text[272]"
				}
,
				"obj-1::obj-1::obj-40" : 				{
					"parameter_longname" : "live.text"
				}
,
				"obj-1::obj-1::obj-42" : 				{
					"parameter_longname" : "live.text[1]"
				}
,
				"obj-1::obj-1::obj-48" : 				{
					"parameter_longname" : "live.text[2]"
				}
,
				"obj-1::obj-1::obj-87" : 				{
					"parameter_longname" : "live.gain~[3]"
				}
,
				"obj-1::obj-1::obj-90" : 				{
					"parameter_longname" : "live.text[6]"
				}
,
				"obj-1::obj-1::obj-92" : 				{
					"parameter_longname" : "live.text[5]"
				}
,
				"obj-1::obj-1::obj-94" : 				{
					"parameter_longname" : "live.text[7]"
				}
,
				"obj-3::obj-1::obj-113" : 				{
					"parameter_longname" : "live.text[13]"
				}
,
				"obj-3::obj-1::obj-40" : 				{
					"parameter_longname" : "live.text[11]"
				}
,
				"obj-3::obj-1::obj-42" : 				{
					"parameter_longname" : "live.text[14]"
				}
,
				"obj-3::obj-1::obj-48" : 				{
					"parameter_longname" : "live.text[17]"
				}
,
				"obj-3::obj-1::obj-87" : 				{
					"parameter_longname" : "live.gain~[4]"
				}
,
				"obj-3::obj-1::obj-90" : 				{
					"parameter_longname" : "live.text[16]"
				}
,
				"obj-3::obj-1::obj-92" : 				{
					"parameter_longname" : "live.text[15]"
				}
,
				"obj-3::obj-1::obj-94" : 				{
					"parameter_longname" : "live.text[10]"
				}
,
				"obj-4::obj-1::obj-113" : 				{
					"parameter_longname" : "live.text[21]"
				}
,
				"obj-4::obj-1::obj-40" : 				{
					"parameter_longname" : "live.text[22]"
				}
,
				"obj-4::obj-1::obj-42" : 				{
					"parameter_longname" : "live.text[18]"
				}
,
				"obj-4::obj-1::obj-48" : 				{
					"parameter_longname" : "live.text[20]"
				}
,
				"obj-4::obj-1::obj-87" : 				{
					"parameter_longname" : "live.gain~[5]"
				}
,
				"obj-4::obj-1::obj-90" : 				{
					"parameter_longname" : "live.text[12]"
				}
,
				"obj-4::obj-1::obj-92" : 				{
					"parameter_longname" : "live.text[19]"
				}
,
				"obj-4::obj-1::obj-94" : 				{
					"parameter_longname" : "live.text[23]"
				}

			}
,
			"inherited_shortname" : 1
		}
,
		"dependency_cache" : [ 			{
				"name" : "helpdetails.js",
				"bootpath" : "C74:/help/resources",
				"type" : "TEXT",
				"implicit" : 1
			}
, 			{
				"name" : "ser.index.mxo",
				"type" : "iLaX"
			}
, 			{
				"name" : "ser.indexview.ui.maxpat",
				"bootpath" : "~/MaxProjects/serialist-max/patchers",
				"patcherrelativepath" : "../patchers",
				"type" : "JSON",
				"implicit" : 1
			}
, 			{
				"name" : "ser.phase.mxo",
				"type" : "iLaX"
			}
, 			{
				"name" : "ser.pulse.mxo",
				"type" : "iLaX"
			}
, 			{
				"name" : "ser.transport.mxo",
				"type" : "iLaX"
			}
, 			{
				"name" : "ser.transport.ui.maxpat",
				"bootpath" : "~/MaxProjects/serialist-max/patchers",
				"patcherrelativepath" : "../patchers",
				"type" : "JSON",
				"implicit" : 1
			}
 ],
		"autosave" : 0
	}

}
