{
	"patcher" : 	{
		"fileversion" : 1,
		"appversion" : 		{
			"major" : 9,
			"minor" : 0,
			"revision" : 5,
			"architecture" : "x64",
			"modernui" : 1
		}
,
		"classnamespace" : "box",
		"rect" : [ 518.0, 212.0, 1544.0, 877.0 ],
		"gridsize" : [ 15.0, 15.0 ],
		"subpatcher_template" : "serialist_help",
		"showrootpatcherontab" : 0,
		"showontab" : 0,
		"boxes" : [ 			{
				"box" : 				{
					"id" : "obj-2",
					"maxclass" : "newobj",
					"numinlets" : 0,
					"numoutlets" : 0,
					"patcher" : 					{
						"fileversion" : 1,
						"appversion" : 						{
							"major" : 9,
							"minor" : 0,
							"revision" : 5,
							"architecture" : "x64",
							"modernui" : 1
						}
,
						"classnamespace" : "box",
						"rect" : [ 0.0, 26.0, 1544.0, 851.0 ],
						"gridsize" : [ 15.0, 15.0 ],
						"showontab" : 1,
						"boxes" : [  ],
						"lines" : [  ],
						"originid" : "pat-28"
					}
,
					"patching_rect" : [ 181.0, 20.0, 25.0, 22.0 ],
					"text" : "p ?"
				}

			}
, 			{
				"box" : 				{
					"id" : "obj-1",
					"maxclass" : "newobj",
					"numinlets" : 0,
					"numoutlets" : 0,
					"patcher" : 					{
						"fileversion" : 1,
						"appversion" : 						{
							"major" : 9,
							"minor" : 0,
							"revision" : 5,
							"architecture" : "x64",
							"modernui" : 1
						}
,
						"classnamespace" : "box",
						"rect" : [ 518.0, 238.0, 1544.0, 851.0 ],
						"openrect" : [ 0.0, 0.0, 1040.0, 740.0 ],
						"gridsize" : [ 15.0, 15.0 ],
						"showontab" : 1,
						"integercoordinates" : 1,
						"boxes" : [ 							{
								"box" : 								{
									"bubble" : 1,
									"bubblepoint" : 0.8,
									"id" : "obj-80",
									"linecount" : 3,
									"maxclass" : "comment",
									"numinlets" : 1,
									"numoutlets" : 0,
									"patching_rect" : [ 472.0, 389.0, 150.0, 51.0 ],
									"text" : "sequences / multilists are broadcasted to multiple voices"
								}

							}
, 							{
								"box" : 								{
									"bubble" : 1,
									"bubblepoint" : 0.2,
									"bubbleside" : 2,
									"id" : "obj-78",
									"linecount" : 3,
									"maxclass" : "comment",
									"numinlets" : 1,
									"numoutlets" : 0,
									"patching_rect" : [ 447.0, 232.0, 182.0, 66.0 ],
									"presentation_linecount" : 5,
									"text" : "chords are normalized and zeros are removed, so these three are all equivalent"
								}

							}
, 							{
								"box" : 								{
									"id" : "obj-77",
									"maxclass" : "message",
									"numinlets" : 2,
									"numoutlets" : 1,
									"outlettype" : [ "" ],
									"patching_rect" : [ 519.0, 306.0, 102.0, 22.0 ],
									"presentation_linecount" : 2,
									"text" : "[ [ 1 0 0 0 0 2 1 ] ]"
								}

							}
, 							{
								"box" : 								{
									"bubble" : 1,
									"bubblepoint" : 0.2,
									"bubbleside" : 2,
									"id" : "obj-76",
									"linecount" : 3,
									"maxclass" : "comment",
									"numinlets" : 1,
									"numoutlets" : 0,
									"patching_rect" : [ 333.0, 232.0, 98.0, 66.0 ],
									"presentation_linecount" : 3,
									"text" : "a chord sets a pattern of subphases "
								}

							}
, 							{
								"box" : 								{
									"bubble" : 1,
									"bubblepoint" : 0.2,
									"bubbleside" : 2,
									"id" : "obj-74",
									"linecount" : 3,
									"maxclass" : "comment",
									"numinlets" : 1,
									"numoutlets" : 0,
									"patching_rect" : [ 197.0, 232.0, 122.0, 66.0 ],
									"text" : "a single value sets the number of (equal) subpharses"
								}

							}
, 							{
								"box" : 								{
									"id" : "obj-72",
									"maxclass" : "message",
									"numinlets" : 2,
									"numoutlets" : 1,
									"outlettype" : [ "" ],
									"patching_rect" : [ 341.0, 397.0, 35.0, 22.0 ],
									"text" : "2 3 5"
								}

							}
, 							{
								"box" : 								{
									"id" : "obj-70",
									"maxclass" : "newobj",
									"numinlets" : 1,
									"numoutlets" : 2,
									"outlettype" : [ "", "" ],
									"patching_rect" : [ 205.0, 369.0, 65.0, 22.0 ],
									"text" : "t l l"
								}

							}
, 							{
								"box" : 								{
									"id" : "obj-68",
									"maxclass" : "newobj",
									"numinlets" : 1,
									"numoutlets" : 1,
									"outlettype" : [ "" ],
									"patcher" : 									{
										"fileversion" : 1,
										"appversion" : 										{
											"major" : 9,
											"minor" : 0,
											"revision" : 5,
											"architecture" : "x64",
											"modernui" : 1
										}
,
										"classnamespace" : "box",
										"rect" : [ 59.0, 106.0, 1000.0, 780.0 ],
										"gridsize" : [ 15.0, 15.0 ],
										"boxes" : [ 											{
												"box" : 												{
													"id" : "obj-1",
													"maxclass" : "newobj",
													"numinlets" : 1,
													"numoutlets" : 1,
													"outlettype" : [ "" ],
													"patching_rect" : [ 149.0, 205.0, 107.0, 22.0 ],
													"text" : "loadmess voices 1"
												}

											}
, 											{
												"box" : 												{
													"id" : "obj-63",
													"maxclass" : "message",
													"numinlets" : 2,
													"numoutlets" : 1,
													"outlettype" : [ "" ],
													"patching_rect" : [ 50.0, 127.0, 59.0, 22.0 ],
													"text" : "voices $1"
												}

											}
, 											{
												"box" : 												{
													"id" : "obj-61",
													"maxclass" : "newobj",
													"numinlets" : 1,
													"numoutlets" : 2,
													"outlettype" : [ "", "" ],
													"patching_rect" : [ 50.0, 100.0, 63.0, 22.0 ],
													"text" : "ser.util len"
												}

											}
, 											{
												"box" : 												{
													"id" : "obj-58",
													"maxclass" : "newobj",
													"numinlets" : 1,
													"numoutlets" : 1,
													"outlettype" : [ "" ],
													"patching_rect" : [ 143.0, 163.0, 137.0, 22.0 ],
													"text" : "loadmess note 60 64 67"
												}

											}
, 											{
												"box" : 												{
													"comment" : "",
													"id" : "obj-65",
													"index" : 1,
													"maxclass" : "inlet",
													"numinlets" : 0,
													"numoutlets" : 1,
													"outlettype" : [ "" ],
													"patching_rect" : [ 50.0, 40.0, 30.0, 30.0 ]
												}

											}
, 											{
												"box" : 												{
													"comment" : "",
													"id" : "obj-66",
													"index" : 1,
													"maxclass" : "outlet",
													"numinlets" : 1,
													"numoutlets" : 0,
													"patching_rect" : [ 50.0, 235.0, 30.0, 30.0 ]
												}

											}
 ],
										"lines" : [ 											{
												"patchline" : 												{
													"destination" : [ "obj-66", 0 ],
													"source" : [ "obj-1", 0 ]
												}

											}
, 											{
												"patchline" : 												{
													"destination" : [ "obj-66", 0 ],
													"source" : [ "obj-58", 0 ]
												}

											}
, 											{
												"patchline" : 												{
													"destination" : [ "obj-63", 0 ],
													"source" : [ "obj-61", 0 ]
												}

											}
, 											{
												"patchline" : 												{
													"destination" : [ "obj-66", 0 ],
													"source" : [ "obj-63", 0 ]
												}

											}
, 											{
												"patchline" : 												{
													"destination" : [ "obj-61", 0 ],
													"source" : [ "obj-65", 0 ]
												}

											}
 ],
										"originid" : "pat-98"
									}
,
									"patching_rect" : [ 251.0, 538.0, 89.0, 22.0 ],
									"text" : "p voice_control"
								}

							}
, 							{
								"box" : 								{
									"id" : "obj-64",
									"maxclass" : "message",
									"numinlets" : 2,
									"numoutlets" : 1,
									"outlettype" : [ "" ],
									"patching_rect" : [ 341.0, 454.0, 149.0, 22.0 ],
									"text" : "[ [ 1 2 1 ] [ 3 ] [ 1 1 9 5 3 ] ]"
								}

							}
, 							{
								"box" : 								{
									"id" : "obj-51",
									"maxclass" : "message",
									"numinlets" : 2,
									"numoutlets" : 1,
									"outlettype" : [ "" ],
									"patching_rect" : [ 341.0, 424.0, 129.0, 22.0 ],
									"text" : "[ [ 0.25 0.5 0.25 ] [ 3 ] ]"
								}

							}
, 							{
								"box" : 								{
									"id" : "obj-49",
									"maxclass" : "message",
									"numinlets" : 2,
									"numoutlets" : 1,
									"outlettype" : [ "" ],
									"patching_rect" : [ 448.0, 306.0, 62.0, 22.0 ],
									"text" : "[ [ 1 2 1 ] ]"
								}

							}
, 							{
								"box" : 								{
									"id" : "obj-47",
									"maxclass" : "toggle",
									"numinlets" : 1,
									"numoutlets" : 1,
									"outlettype" : [ "int" ],
									"parameter_enable" : 0,
									"patching_rect" : [ 26.0, 131.0, 24.0, 24.0 ]
								}

							}
, 							{
								"box" : 								{
									"id" : "obj-45",
									"maxclass" : "message",
									"numinlets" : 2,
									"numoutlets" : 1,
									"outlettype" : [ "" ],
									"patching_rect" : [ 26.0, 160.0, 68.0, 22.0 ],
									"text" : "enabled $1"
								}

							}
, 							{
								"box" : 								{
									"bgmode" : 0,
									"border" : 0,
									"clickthrough" : 0,
									"enablehscroll" : 0,
									"enablevscroll" : 0,
									"id" : "obj-38",
									"lockeddragscroll" : 0,
									"lockedsize" : 0,
									"maxclass" : "bpatcher",
									"name" : "ser.pulseview.ui.maxpat",
									"numinlets" : 1,
									"numoutlets" : 0,
									"offset" : [ 0.0, 0.0 ],
									"patching_rect" : [ 46.0, 539.0, 27.0, 20.0 ],
									"viewvisibility" : 1
								}

							}
, 							{
								"box" : 								{
									"id" : "obj-28",
									"maxclass" : "message",
									"numinlets" : 2,
									"numoutlets" : 1,
									"outlettype" : [ "" ],
									"patching_rect" : [ 341.0, 345.0, 189.0, 22.0 ],
									"text" : "[ [ 0.25 0.25 0.25 0.25 1.5 0.5 1 ] ]"
								}

							}
, 							{
								"box" : 								{
									"id" : "obj-25",
									"linecount" : 2,
									"maxclass" : "comment",
									"numinlets" : 1,
									"numoutlets" : 0,
									"patching_rect" : [ 534.0, 550.0, 187.0, 33.0 ],
									"text" : "NOTE: THIS IS CURRENTLY NOT WORKING AS INTENDED",
									"textcolor" : [ 0.996078431372549, 0.423529411764706, 0.423529411764706, 1.0 ]
								}

							}
, 							{
								"box" : 								{
									"bubble" : 1,
									"id" : "obj-14",
									"linecount" : 4,
									"maxclass" : "comment",
									"numinlets" : 1,
									"numoutlets" : 0,
									"patching_rect" : [ 517.0, 510.0, 209.0, 78.0 ],
									"text" : "Negative values correspond to pauses. \n\n\n"
								}

							}
, 							{
								"box" : 								{
									"bgmode" : 0,
									"border" : 0,
									"clickthrough" : 0,
									"enablehscroll" : 0,
									"enablevscroll" : 0,
									"id" : "obj-7",
									"lockeddragscroll" : 0,
									"lockedsize" : 0,
									"maxclass" : "bpatcher",
									"name" : "ser.pulseview.ui.maxpat",
									"numinlets" : 1,
									"numoutlets" : 0,
									"offset" : [ 0.0, 0.0 ],
									"patching_rect" : [ 157.0, 539.0, 54.0, 20.0 ],
									"viewvisibility" : 1
								}

							}
, 							{
								"box" : 								{
									"bgcolor" : [ 0.996078431372549, 0.423529411764706, 0.423529411764706, 1.0 ],
									"bgcolor2" : [ 0.172137149796092, 0.172137100044002, 0.172137113045018, 1.0 ],
									"bgfillcolor_angle" : 270.0,
									"bgfillcolor_autogradient" : 0.0,
									"bgfillcolor_color" : [ 0.996078431372549, 0.423529411764706, 0.423529411764706, 1.0 ],
									"bgfillcolor_color1" : [ 0.996078431372549, 0.423529411764706, 0.423529411764706, 1.0 ],
									"bgfillcolor_color2" : [ 0.172137149796092, 0.172137100044002, 0.172137113045018, 1.0 ],
									"bgfillcolor_proportion" : 0.5,
									"bgfillcolor_type" : "gradient",
									"gradient" : 1,
									"id" : "obj-6",
									"maxclass" : "message",
									"numinlets" : 2,
									"numoutlets" : 1,
									"outlettype" : [ "" ],
									"patching_rect" : [ 403.0, 538.0, 109.0, 22.0 ],
									"presentation_linecount" : 2,
									"text" : "[ [ 0.25 -0.5 0.25 ] ]"
								}

							}
, 							{
								"box" : 								{
									"id" : "obj-26",
									"maxclass" : "newobj",
									"numinlets" : 4,
									"numoutlets" : 2,
									"outlettype" : [ "", "" ],
									"patching_rect" : [ 26.0, 581.0, 97.0, 22.0 ],
									"text" : "ser.makenote 48"
								}

							}
, 							{
								"box" : 								{
									"id" : "obj-24",
									"maxclass" : "newobj",
									"numinlets" : 2,
									"numoutlets" : 2,
									"outlettype" : [ "", "" ],
									"patching_rect" : [ 26.0, 501.0, 57.0, 22.0 ],
									"text" : "ser.pulse"
								}

							}
, 							{
								"box" : 								{
									"id" : "obj-23",
									"maxclass" : "newobj",
									"numinlets" : 2,
									"numoutlets" : 2,
									"outlettype" : [ "", "" ],
									"patching_rect" : [ 130.0, 501.0, 57.0, 22.0 ],
									"text" : "ser.pulse"
								}

							}
, 							{
								"box" : 								{
									"id" : "obj-22",
									"maxclass" : "newobj",
									"numinlets" : 3,
									"numoutlets" : 0,
									"patching_rect" : [ 26.0, 620.0, 49.0, 22.0 ],
									"text" : "noteout"
								}

							}
, 							{
								"box" : 								{
									"id" : "obj-21",
									"maxclass" : "newobj",
									"numinlets" : 4,
									"numoutlets" : 2,
									"outlettype" : [ "", "" ],
									"patching_rect" : [ 130.0, 581.0, 81.0, 22.0 ],
									"text" : "ser.makenote"
								}

							}
, 							{
								"box" : 								{
									"id" : "obj-20",
									"maxclass" : "message",
									"numinlets" : 2,
									"numoutlets" : 1,
									"outlettype" : [ "" ],
									"patching_rect" : [ 341.0, 306.0, 105.0, 22.0 ],
									"text" : "[ [ 0.25 0.5 0.25 ] ]"
								}

							}
, 							{
								"box" : 								{
									"id" : "obj-18",
									"maxclass" : "message",
									"numinlets" : 2,
									"numoutlets" : 1,
									"outlettype" : [ "" ],
									"patching_rect" : [ 272.0, 306.0, 30.0, 22.0 ],
									"text" : "7"
								}

							}
, 							{
								"box" : 								{
									"id" : "obj-17",
									"maxclass" : "message",
									"numinlets" : 2,
									"numoutlets" : 1,
									"outlettype" : [ "" ],
									"patching_rect" : [ 240.0, 306.0, 30.0, 22.0 ],
									"text" : "5"
								}

							}
, 							{
								"box" : 								{
									"bgmode" : 0,
									"border" : 0,
									"clickthrough" : 0,
									"enablehscroll" : 0,
									"enablevscroll" : 0,
									"id" : "obj-16",
									"lockeddragscroll" : 0,
									"lockedsize" : 0,
									"maxclass" : "bpatcher",
									"name" : "ser.scope.ui.maxpat",
									"numinlets" : 1,
									"numoutlets" : 2,
									"offset" : [ 0.0, 0.0 ],
									"outlettype" : [ "", "" ],
									"patching_rect" : [ 162.0, 445.0, 87.0, 41.0 ],
									"varname" : "ser.scope.ui[1]",
									"viewvisibility" : 1
								}

							}
, 							{
								"box" : 								{
									"id" : "obj-15",
									"maxclass" : "message",
									"numinlets" : 2,
									"numoutlets" : 1,
									"outlettype" : [ "" ],
									"patching_rect" : [ 205.0, 306.0, 30.0, 22.0 ],
									"text" : "3"
								}

							}
, 							{
								"box" : 								{
									"bgmode" : 0,
									"border" : 0,
									"clickthrough" : 0,
									"enablehscroll" : 0,
									"enablevscroll" : 0,
									"id" : "obj-9",
									"lockeddragscroll" : 0,
									"lockedsize" : 0,
									"maxclass" : "bpatcher",
									"name" : "ser.scope.ui.maxpat",
									"numinlets" : 1,
									"numoutlets" : 2,
									"offset" : [ 0.0, 0.0 ],
									"outlettype" : [ "", "" ],
									"patching_rect" : [ 66.0, 222.0, 87.0, 41.0 ],
									"varname" : "ser.scope.ui",
									"viewvisibility" : 1
								}

							}
, 							{
								"box" : 								{
									"id" : "obj-8",
									"maxclass" : "newobj",
									"numinlets" : 2,
									"numoutlets" : 2,
									"outlettype" : [ "", "" ],
									"patching_rect" : [ 130.0, 401.0, 94.0, 22.0 ],
									"text" : "ser.phasemap 3"
								}

							}
, 							{
								"box" : 								{
									"id" : "obj-4",
									"maxclass" : "newobj",
									"numinlets" : 3,
									"numoutlets" : 2,
									"outlettype" : [ "", "" ],
									"patching_rect" : [ 26.0, 189.0, 119.0, 22.0 ],
									"text" : "ser.phase @period 2"
								}

							}
, 							{
								"box" : 								{
									"border" : 0,
									"filename" : "helpdetails.js",
									"id" : "obj-2",
									"ignoreclick" : 1,
									"jsarguments" : [ "ser.phasemap" ],
									"maxclass" : "jsui",
									"nofsaa" : 1,
									"numinlets" : 1,
									"numoutlets" : 1,
									"outlettype" : [ "" ],
									"parameter_enable" : 0,
									"patching_rect" : [ 10.0, 10.0, 895.0, 120.0 ]
								}

							}
, 							{
								"box" : 								{
									"id" : "obj-3",
									"maxclass" : "ezdac~",
									"numinlets" : 2,
									"numoutlets" : 0,
									"patching_rect" : [ 828.0, 474.0, 45.0, 45.0 ]
								}

							}
, 							{
								"box" : 								{
									"bgmode" : 0,
									"border" : 0,
									"clickthrough" : 0,
									"enablehscroll" : 0,
									"enablevscroll" : 0,
									"id" : "obj-1",
									"lockeddragscroll" : 0,
									"lockedsize" : 0,
									"maxclass" : "bpatcher",
									"name" : "ser.transport.ui.maxpat",
									"numinlets" : 1,
									"numoutlets" : 9,
									"offset" : [ 0.0, 0.0 ],
									"outlettype" : [ "", "", "", "", "", "", "", "", "signal" ],
									"patching_rect" : [ 695.0, 191.0, 178.0, 269.0 ],
									"varname" : "ser.transport.ui",
									"viewvisibility" : 1
								}

							}
, 							{
								"box" : 								{
									"background" : 1,
									"bgcolor" : [ 0.9, 0.65, 0.05, 1.0 ],
									"fontface" : 1,
									"hint" : "",
									"id" : "obj-12",
									"ignoreclick" : 1,
									"legacytextcolor" : 1,
									"maxclass" : "textbutton",
									"numinlets" : 1,
									"numoutlets" : 3,
									"outlettype" : [ "", "", "int" ],
									"parameter_enable" : 0,
									"patching_rect" : [ 668.0, 217.0, 20.0, 20.0 ],
									"rounded" : 60.0,
									"saved_attribute_attributes" : 									{
										"bgcolor" : 										{
											"expression" : "themecolor.lesson_step_circle"
										}

									}
,
									"text" : "1",
									"textcolor" : [ 0.34902, 0.34902, 0.34902, 1.0 ]
								}

							}
, 							{
								"box" : 								{
									"background" : 1,
									"bgcolor" : [ 0.9, 0.65, 0.05, 1.0 ],
									"fontface" : 1,
									"hint" : "",
									"id" : "obj-29",
									"ignoreclick" : 1,
									"legacytextcolor" : 1,
									"maxclass" : "textbutton",
									"numinlets" : 1,
									"numoutlets" : 3,
									"outlettype" : [ "", "", "int" ],
									"parameter_enable" : 0,
									"patching_rect" : [ 59.0, 133.0, 20.0, 20.0 ],
									"presentation" : 1,
									"presentation_rect" : [ 611.0, 146.0, 20.0, 20.0 ],
									"rounded" : 60.0,
									"saved_attribute_attributes" : 									{
										"bgcolor" : 										{
											"expression" : "themecolor.lesson_step_circle"
										}

									}
,
									"text" : "2",
									"textcolor" : [ 0.34902, 0.34902, 0.34902, 1.0 ]
								}

							}
 ],
						"lines" : [ 							{
								"patchline" : 								{
									"destination" : [ "obj-3", 1 ],
									"order" : 0,
									"source" : [ "obj-1", 8 ]
								}

							}
, 							{
								"patchline" : 								{
									"destination" : [ "obj-3", 0 ],
									"order" : 1,
									"source" : [ "obj-1", 8 ]
								}

							}
, 							{
								"patchline" : 								{
									"destination" : [ "obj-70", 0 ],
									"source" : [ "obj-15", 0 ]
								}

							}
, 							{
								"patchline" : 								{
									"destination" : [ "obj-70", 0 ],
									"source" : [ "obj-17", 0 ]
								}

							}
, 							{
								"patchline" : 								{
									"destination" : [ "obj-70", 0 ],
									"source" : [ "obj-18", 0 ]
								}

							}
, 							{
								"patchline" : 								{
									"destination" : [ "obj-70", 0 ],
									"source" : [ "obj-20", 0 ]
								}

							}
, 							{
								"patchline" : 								{
									"destination" : [ "obj-22", 0 ],
									"midpoints" : [ 139.5, 611.5, 35.5, 611.5 ],
									"source" : [ "obj-21", 0 ]
								}

							}
, 							{
								"patchline" : 								{
									"destination" : [ "obj-21", 0 ],
									"order" : 0,
									"source" : [ "obj-23", 0 ]
								}

							}
, 							{
								"patchline" : 								{
									"destination" : [ "obj-7", 0 ],
									"order" : 1,
									"source" : [ "obj-23", 0 ]
								}

							}
, 							{
								"patchline" : 								{
									"destination" : [ "obj-26", 0 ],
									"order" : 0,
									"source" : [ "obj-24", 0 ]
								}

							}
, 							{
								"patchline" : 								{
									"destination" : [ "obj-38", 0 ],
									"order" : 1,
									"source" : [ "obj-24", 0 ]
								}

							}
, 							{
								"patchline" : 								{
									"destination" : [ "obj-22", 0 ],
									"source" : [ "obj-26", 0 ]
								}

							}
, 							{
								"patchline" : 								{
									"destination" : [ "obj-70", 0 ],
									"source" : [ "obj-28", 0 ]
								}

							}
, 							{
								"patchline" : 								{
									"destination" : [ "obj-24", 0 ],
									"midpoints" : [ 35.5, 213.0, 35.5, 213.0 ],
									"order" : 1,
									"source" : [ "obj-4", 0 ]
								}

							}
, 							{
								"patchline" : 								{
									"destination" : [ "obj-8", 0 ],
									"midpoints" : [ 35.5, 458.09375, 139.5, 458.09375 ],
									"order" : 0,
									"source" : [ "obj-4", 0 ]
								}

							}
, 							{
								"patchline" : 								{
									"destination" : [ "obj-9", 0 ],
									"order" : 2,
									"source" : [ "obj-4", 0 ]
								}

							}
, 							{
								"patchline" : 								{
									"destination" : [ "obj-21", 0 ],
									"hidden" : 1,
									"midpoints" : [ 35.5, 183.0, 12.0, 183.0, 12.0, 566.29296875, 117.0, 566.29296875, 117.0, 567.0, 139.5, 567.0 ],
									"order" : 0,
									"source" : [ "obj-45", 0 ]
								}

							}
, 							{
								"patchline" : 								{
									"destination" : [ "obj-26", 0 ],
									"hidden" : 1,
									"midpoints" : [ 35.5, 183.0, 12.0, 183.0, 12.0, 565.453125, 35.5, 565.453125 ],
									"order" : 1,
									"source" : [ "obj-45", 0 ]
								}

							}
, 							{
								"patchline" : 								{
									"destination" : [ "obj-4", 0 ],
									"order" : 2,
									"source" : [ "obj-45", 0 ]
								}

							}
, 							{
								"patchline" : 								{
									"destination" : [ "obj-45", 0 ],
									"source" : [ "obj-47", 0 ]
								}

							}
, 							{
								"patchline" : 								{
									"destination" : [ "obj-70", 0 ],
									"source" : [ "obj-49", 0 ]
								}

							}
, 							{
								"patchline" : 								{
									"destination" : [ "obj-70", 0 ],
									"source" : [ "obj-51", 0 ]
								}

							}
, 							{
								"patchline" : 								{
									"destination" : [ "obj-70", 0 ],
									"source" : [ "obj-6", 0 ]
								}

							}
, 							{
								"patchline" : 								{
									"destination" : [ "obj-70", 0 ],
									"source" : [ "obj-64", 0 ]
								}

							}
, 							{
								"patchline" : 								{
									"destination" : [ "obj-21", 0 ],
									"midpoints" : [ 260.5, 570.5, 139.5, 570.5 ],
									"source" : [ "obj-68", 0 ]
								}

							}
, 							{
								"patchline" : 								{
									"destination" : [ "obj-68", 0 ],
									"source" : [ "obj-70", 1 ]
								}

							}
, 							{
								"patchline" : 								{
									"destination" : [ "obj-8", 1 ],
									"source" : [ "obj-70", 0 ]
								}

							}
, 							{
								"patchline" : 								{
									"destination" : [ "obj-70", 0 ],
									"source" : [ "obj-72", 0 ]
								}

							}
, 							{
								"patchline" : 								{
									"destination" : [ "obj-70", 0 ],
									"source" : [ "obj-77", 0 ]
								}

							}
, 							{
								"patchline" : 								{
									"destination" : [ "obj-16", 0 ],
									"order" : 1,
									"source" : [ "obj-8", 0 ]
								}

							}
, 							{
								"patchline" : 								{
									"destination" : [ "obj-23", 0 ],
									"order" : 0,
									"source" : [ "obj-8", 0 ]
								}

							}
 ],
						"originid" : "pat-30",
						"boxgroups" : [ 							{
								"boxes" : [ "obj-14", "obj-25" ]
							}
 ]
					}
,
					"patching_rect" : [ 23.0, 20.0, 47.0, 22.0 ],
					"text" : "p basic",
					"varname" : "basic[1]"
				}

			}
 ],
		"lines" : [  ],
		"originid" : "pat-4",
		"parameters" : 		{
			"obj-1::obj-1::obj-113" : [ "live.text[272]", "live.text", 0 ],
			"obj-1::obj-1::obj-34::obj-1" : [ "live.numbox[44]", "live.numbox", 0 ],
			"obj-1::obj-1::obj-40" : [ "live.text", "live.text", 0 ],
			"obj-1::obj-1::obj-42" : [ "live.text[1]", "live.text", 0 ],
			"obj-1::obj-1::obj-48" : [ "live.text[2]", "live.text[2]", 0 ],
			"obj-1::obj-1::obj-87" : [ "live.gain~[3]", "live.gain~", 0 ],
			"obj-1::obj-1::obj-90" : [ "live.text[6]", "live.text[2]", 0 ],
			"obj-1::obj-1::obj-92" : [ "live.text[5]", "live.text[2]", 0 ],
			"obj-1::obj-1::obj-94" : [ "live.text[7]", "live.text[2]", 0 ],
			"parameterbanks" : 			{
				"0" : 				{
					"index" : 0,
					"name" : "",
					"parameters" : [ "-", "-", "-", "-", "-", "-", "-", "-" ]
				}

			}
,
			"parameter_overrides" : 			{
				"obj-1::obj-1::obj-113" : 				{
					"parameter_longname" : "live.text[272]"
				}
,
				"obj-1::obj-1::obj-40" : 				{
					"parameter_longname" : "live.text"
				}
,
				"obj-1::obj-1::obj-42" : 				{
					"parameter_longname" : "live.text[1]"
				}
,
				"obj-1::obj-1::obj-48" : 				{
					"parameter_longname" : "live.text[2]"
				}
,
				"obj-1::obj-1::obj-87" : 				{
					"parameter_longname" : "live.gain~[3]"
				}
,
				"obj-1::obj-1::obj-90" : 				{
					"parameter_longname" : "live.text[6]"
				}
,
				"obj-1::obj-1::obj-92" : 				{
					"parameter_longname" : "live.text[5]"
				}
,
				"obj-1::obj-1::obj-94" : 				{
					"parameter_longname" : "live.text[7]"
				}

			}
,
			"inherited_shortname" : 1
		}
,
		"dependency_cache" : [ 			{
				"name" : "helpdetails.js",
				"bootpath" : "C74:/help/resources",
				"type" : "TEXT",
				"implicit" : 1
			}
, 			{
				"name" : "pyosc.awaitpatcherargs.maxpat",
				"bootpath" : "~/MaxProjects/pyosc/pyosc/patchers",
				"patcherrelativepath" : "../../pyosc/pyosc/patchers",
				"type" : "JSON",
				"implicit" : 1
			}
, 			{
				"name" : "ser.core.slider.maxpat",
				"bootpath" : "~/MaxProjects/serialist-max/patchers/ui",
				"patcherrelativepath" : "../patchers/ui",
				"type" : "JSON",
				"implicit" : 1
			}
, 			{
				"name" : "ser.makenote.mxo",
				"type" : "iLaX"
			}
, 			{
				"name" : "ser.op.mxo",
				"type" : "iLaX"
			}
, 			{
				"name" : "ser.phase.mxo",
				"type" : "iLaX"
			}
, 			{
				"name" : "ser.phasemap.mxo",
				"type" : "iLaX"
			}
, 			{
				"name" : "ser.pulse.mxo",
				"type" : "iLaX"
			}
, 			{
				"name" : "ser.pulseview.ui.maxpat",
				"bootpath" : "~/MaxProjects/serialist-max/patchers/ui",
				"patcherrelativepath" : "../patchers/ui",
				"type" : "JSON",
				"implicit" : 1
			}
, 			{
				"name" : "ser.scope.ui.maxpat",
				"bootpath" : "~/MaxProjects/serialist-max/patchers/view",
				"patcherrelativepath" : "../patchers/view",
				"type" : "JSON",
				"implicit" : 1
			}
, 			{
				"name" : "ser.slidermapping.mxo",
				"type" : "iLaX"
			}
, 			{
				"name" : "ser.transport.mxo",
				"type" : "iLaX"
			}
, 			{
				"name" : "ser.transport.ui.maxpat",
				"bootpath" : "~/MaxProjects/serialist-max/patchers/generatives",
				"patcherrelativepath" : "../patchers/generatives",
				"type" : "JSON",
				"implicit" : 1
			}
, 			{
				"name" : "ser.util.mxo",
				"type" : "iLaX"
			}
 ],
		"autosave" : 0
	}

}
