{
	"patcher" : 	{
		"fileversion" : 1,
		"appversion" : 		{
			"major" : 9,
			"minor" : 0,
			"revision" : 5,
			"architecture" : "x64",
			"modernui" : 1
		}
,
		"classnamespace" : "box",
		"rect" : [ 34.0, 87.0, 2512.0, 1256.0 ],
		"gridsize" : [ 15.0, 15.0 ],
		"subpatcher_template" : "serialist_help",
		"showontab" : 1,
		"boxes" : [ 			{
				"box" : 				{
					"id" : "obj-2",
					"maxclass" : "newobj",
					"numinlets" : 0,
					"numoutlets" : 0,
					"patcher" : 					{
						"fileversion" : 1,
						"appversion" : 						{
							"major" : 9,
							"minor" : 0,
							"revision" : 5,
							"architecture" : "x64",
							"modernui" : 1
						}
,
						"classnamespace" : "box",
						"rect" : [ 0.0, 26.0, 2512.0, 1230.0 ],
						"gridsize" : [ 15.0, 15.0 ],
						"showontab" : 1,
						"boxes" : [  ],
						"lines" : [  ],
						"originid" : "pat-52"
					}
,
					"patching_rect" : [ 264.0, 20.0, 25.0, 22.0 ],
					"text" : "p ?"
				}

			}
, 			{
				"box" : 				{
					"id" : "obj-1",
					"maxclass" : "newobj",
					"numinlets" : 0,
					"numoutlets" : 0,
					"patcher" : 					{
						"fileversion" : 1,
						"appversion" : 						{
							"major" : 9,
							"minor" : 0,
							"revision" : 5,
							"architecture" : "x64",
							"modernui" : 1
						}
,
						"classnamespace" : "box",
						"rect" : [ 34.0, 113.0, 2512.0, 1230.0 ],
						"openrect" : [ 0.0, 0.0, 1040.0, 740.0 ],
						"gridsize" : [ 15.0, 15.0 ],
						"showontab" : 1,
						"integercoordinates" : 1,
						"boxes" : [ 							{
								"box" : 								{
									"id" : "obj-71",
									"maxclass" : "button",
									"numinlets" : 1,
									"numoutlets" : 1,
									"outlettype" : [ "bang" ],
									"parameter_enable" : 0,
									"patching_rect" : [ 69.0, 392.0, 15.0, 15.0 ]
								}

							}
, 							{
								"box" : 								{
									"id" : "obj-69",
									"maxclass" : "button",
									"numinlets" : 1,
									"numoutlets" : 1,
									"outlettype" : [ "bang" ],
									"parameter_enable" : 0,
									"patching_rect" : [ 770.0, 616.0, 24.0, 24.0 ]
								}

							}
, 							{
								"box" : 								{
									"id" : "obj-67",
									"maxclass" : "message",
									"numinlets" : 2,
									"numoutlets" : 1,
									"outlettype" : [ "" ],
									"patching_rect" : [ 695.0, 617.0, 70.0, 22.0 ],
									"text" : "0.463841"
								}

							}
, 							{
								"box" : 								{
									"id" : "obj-65",
									"maxclass" : "button",
									"numinlets" : 1,
									"numoutlets" : 1,
									"outlettype" : [ "bang" ],
									"parameter_enable" : 0,
									"patching_rect" : [ 695.0, 552.0, 24.0, 24.0 ]
								}

							}
, 							{
								"box" : 								{
									"id" : "obj-63",
									"maxclass" : "newobj",
									"numinlets" : 4,
									"numoutlets" : 2,
									"outlettype" : [ "", "" ],
									"patching_rect" : [ 695.0, 582.0, 151.0, 22.0 ],
									"text" : "ser.random @pollinterval 0"
								}

							}
, 							{
								"box" : 								{
									"id" : "obj-62",
									"linecount" : 4,
									"maxclass" : "comment",
									"numinlets" : 1,
									"numoutlets" : 0,
									"patching_rect" : [ 695.0, 482.0, 178.0, 60.0 ],
									"text" : "Note that in some cases, ser.snh may be overkill. We can often achieve similar results with manual polling:"
								}

							}
, 							{
								"box" : 								{
									"bubble" : 1,
									"bubblepoint" : 0.8,
									"id" : "obj-58",
									"linecount" : 2,
									"maxclass" : "comment",
									"numinlets" : 1,
									"numoutlets" : 0,
									"patching_rect" : [ 91.0, 366.0, 178.0, 37.0 ],
									"presentation_linecount" : 4,
									"text" : "when frozen, continuously output the last value"
								}

							}
, 							{
								"box" : 								{
									"bubble" : 1,
									"id" : "obj-57",
									"maxclass" : "comment",
									"numinlets" : 1,
									"numoutlets" : 0,
									"patching_rect" : [ 464.0, 294.0, 150.0, 24.0 ],
									"text" : "element-wise control"
								}

							}
, 							{
								"box" : 								{
									"bubble" : 1,
									"id" : "obj-55",
									"linecount" : 2,
									"maxclass" : "comment",
									"numinlets" : 1,
									"numoutlets" : 0,
									"patching_rect" : [ 175.0, 318.0, 127.0, 37.0 ],
									"presentation_linecount" : 2,
									"text" : "broadcasting applies as usual"
								}

							}
, 							{
								"box" : 								{
									"id" : "obj-53",
									"maxclass" : "message",
									"numinlets" : 2,
									"numoutlets" : 1,
									"outlettype" : [ "" ],
									"patching_rect" : [ 102.0, 292.0, 30.0, 22.0 ],
									"text" : "0"
								}

							}
, 							{
								"box" : 								{
									"id" : "obj-52",
									"maxclass" : "message",
									"numinlets" : 2,
									"numoutlets" : 1,
									"outlettype" : [ "" ],
									"patching_rect" : [ 65.0, 292.0, 30.0, 22.0 ],
									"text" : "1"
								}

							}
, 							{
								"box" : 								{
									"format" : 6,
									"id" : "obj-50",
									"maxclass" : "flonum",
									"numinlets" : 1,
									"numoutlets" : 2,
									"outlettype" : [ "", "bang" ],
									"parameter_enable" : 0,
									"patching_rect" : [ 65.0, 325.0, 50.0, 22.0 ]
								}

							}
, 							{
								"box" : 								{
									"bubble" : 1,
									"id" : "obj-46",
									"maxclass" : "comment",
									"numinlets" : 1,
									"numoutlets" : 0,
									"patching_rect" : [ 134.0, 291.0, 125.0, 24.0 ],
									"text" : "zero freezes value"
								}

							}
, 							{
								"box" : 								{
									"hidden" : 1,
									"id" : "obj-39",
									"maxclass" : "newobj",
									"numinlets" : 1,
									"numoutlets" : 1,
									"outlettype" : [ "" ],
									"patching_rect" : [ 374.0, 248.0, 70.0, 22.0 ],
									"text" : "loadmess 1"
								}

							}
, 							{
								"box" : 								{
									"id" : "obj-38",
									"maxclass" : "toggle",
									"numinlets" : 1,
									"numoutlets" : 1,
									"outlettype" : [ "int" ],
									"parameter_enable" : 0,
									"patching_rect" : [ 433.0, 294.0, 24.0, 24.0 ]
								}

							}
, 							{
								"box" : 								{
									"id" : "obj-28",
									"maxclass" : "toggle",
									"numinlets" : 1,
									"numoutlets" : 1,
									"outlettype" : [ "int" ],
									"parameter_enable" : 0,
									"patching_rect" : [ 403.0, 294.0, 24.0, 24.0 ]
								}

							}
, 							{
								"box" : 								{
									"id" : "obj-27",
									"maxclass" : "toggle",
									"numinlets" : 1,
									"numoutlets" : 1,
									"outlettype" : [ "int" ],
									"parameter_enable" : 0,
									"patching_rect" : [ 374.0, 294.0, 24.0, 24.0 ]
								}

							}
, 							{
								"box" : 								{
									"id" : "obj-25",
									"maxclass" : "newobj",
									"numinlets" : 3,
									"numoutlets" : 1,
									"outlettype" : [ "" ],
									"patching_rect" : [ 374.0, 329.0, 78.0, 22.0 ],
									"text" : "pak 0 0 0"
								}

							}
, 							{
								"box" : 								{
									"bgmode" : 0,
									"border" : 0,
									"clickthrough" : 0,
									"enablehscroll" : 0,
									"enablevscroll" : 0,
									"id" : "obj-21",
									"lockeddragscroll" : 0,
									"lockedsize" : 0,
									"maxclass" : "bpatcher",
									"name" : "ser.scope.ui.maxpat",
									"numinlets" : 1,
									"numoutlets" : 2,
									"offset" : [ 0.0, 0.0 ],
									"outlettype" : [ "", "" ],
									"patching_rect" : [ 346.0, 409.0, 87.0, 41.0 ],
									"varname" : "ser.scope.ui[2]",
									"viewvisibility" : 1
								}

							}
, 							{
								"box" : 								{
									"bgmode" : 0,
									"border" : 0,
									"clickthrough" : 0,
									"enablehscroll" : 0,
									"enablevscroll" : 0,
									"id" : "obj-22",
									"lockeddragscroll" : 0,
									"lockedsize" : 0,
									"maxclass" : "bpatcher",
									"name" : "ser.scope.ui.maxpat",
									"numinlets" : 1,
									"numoutlets" : 2,
									"offset" : [ 0.0, 0.0 ],
									"outlettype" : [ "", "" ],
									"patching_rect" : [ 372.0, 201.0, 87.0, 41.0 ],
									"varname" : "ser.scope.ui[3]",
									"viewvisibility" : 1
								}

							}
, 							{
								"box" : 								{
									"id" : "obj-23",
									"maxclass" : "newobj",
									"numinlets" : 3,
									"numoutlets" : 2,
									"outlettype" : [ "", "" ],
									"patching_rect" : [ 346.0, 164.0, 159.0, 22.0 ],
									"text" : "ser.phase @period 1 1.2 0.8"
								}

							}
, 							{
								"box" : 								{
									"id" : "obj-24",
									"maxclass" : "newobj",
									"numinlets" : 2,
									"numoutlets" : 2,
									"outlettype" : [ "", "" ],
									"patching_rect" : [ 346.0, 362.0, 47.0, 22.0 ],
									"text" : "ser.snh"
								}

							}
, 							{
								"box" : 								{
									"id" : "obj-17",
									"maxclass" : "message",
									"numinlets" : 2,
									"numoutlets" : 1,
									"outlettype" : [ "" ],
									"patching_rect" : [ 143.0, 325.0, 30.0, 22.0 ],
									"text" : "0 1"
								}

							}
, 							{
								"box" : 								{
									"bgmode" : 0,
									"border" : 0,
									"clickthrough" : 0,
									"enablehscroll" : 0,
									"enablevscroll" : 0,
									"id" : "obj-11",
									"lockeddragscroll" : 0,
									"lockedsize" : 0,
									"maxclass" : "bpatcher",
									"name" : "ser.scope.ui.maxpat",
									"numinlets" : 1,
									"numoutlets" : 2,
									"offset" : [ 0.0, 0.0 ],
									"outlettype" : [ "", "" ],
									"patching_rect" : [ 37.0, 409.0, 87.0, 41.0 ],
									"varname" : "ser.scope.ui[1]",
									"viewvisibility" : 1
								}

							}
, 							{
								"box" : 								{
									"bgmode" : 0,
									"border" : 0,
									"clickthrough" : 0,
									"enablehscroll" : 0,
									"enablevscroll" : 0,
									"id" : "obj-9",
									"lockeddragscroll" : 0,
									"lockedsize" : 0,
									"maxclass" : "bpatcher",
									"name" : "ser.scope.ui.maxpat",
									"numinlets" : 1,
									"numoutlets" : 2,
									"offset" : [ 0.0, 0.0 ],
									"outlettype" : [ "", "" ],
									"patching_rect" : [ 65.0, 201.0, 87.0, 41.0 ],
									"varname" : "ser.scope.ui",
									"viewvisibility" : 1
								}

							}
, 							{
								"box" : 								{
									"id" : "obj-8",
									"maxclass" : "newobj",
									"numinlets" : 4,
									"numoutlets" : 2,
									"outlettype" : [ "", "" ],
									"patching_rect" : [ 37.0, 164.0, 69.0, 22.0 ],
									"text" : "ser.random"
								}

							}
, 							{
								"box" : 								{
									"id" : "obj-4",
									"maxclass" : "newobj",
									"numinlets" : 2,
									"numoutlets" : 2,
									"outlettype" : [ "", "" ],
									"patching_rect" : [ 37.0, 362.0, 47.0, 22.0 ],
									"text" : "ser.snh"
								}

							}
, 							{
								"box" : 								{
									"border" : 0,
									"filename" : "helpdetails.js",
									"id" : "obj-2",
									"ignoreclick" : 1,
									"jsarguments" : [ "ser.snh" ],
									"maxclass" : "jsui",
									"nofsaa" : 1,
									"numinlets" : 1,
									"numoutlets" : 1,
									"outlettype" : [ "" ],
									"parameter_enable" : 0,
									"patching_rect" : [ 10.0, 10.0, 895.0, 120.0 ]
								}

							}
, 							{
								"box" : 								{
									"bgmode" : 0,
									"border" : 0,
									"clickthrough" : 0,
									"enablehscroll" : 0,
									"enablevscroll" : 0,
									"id" : "obj-1",
									"lockeddragscroll" : 0,
									"lockedsize" : 0,
									"maxclass" : "bpatcher",
									"name" : "ser.transport.ui.maxpat",
									"numinlets" : 1,
									"numoutlets" : 9,
									"offset" : [ 0.0, 0.0 ],
									"outlettype" : [ "", "", "", "", "", "", "", "", "signal" ],
									"patching_rect" : [ 695.0, 191.0, 178.0, 269.0 ],
									"varname" : "ser.transport.ui",
									"viewvisibility" : 1
								}

							}
, 							{
								"box" : 								{
									"background" : 1,
									"bgcolor" : [ 0.9, 0.65, 0.05, 1.0 ],
									"fontface" : 1,
									"hint" : "",
									"id" : "obj-12",
									"ignoreclick" : 1,
									"legacytextcolor" : 1,
									"maxclass" : "textbutton",
									"numinlets" : 1,
									"numoutlets" : 3,
									"outlettype" : [ "", "", "int" ],
									"parameter_enable" : 0,
									"patching_rect" : [ 665.0, 220.0, 20.0, 20.0 ],
									"rounded" : 60.0,
									"saved_attribute_attributes" : 									{
										"bgcolor" : 										{
											"expression" : "themecolor.lesson_step_circle"
										}

									}
,
									"text" : "1",
									"textcolor" : [ 0.34902, 0.34902, 0.34902, 1.0 ]
								}

							}
 ],
						"lines" : [ 							{
								"patchline" : 								{
									"destination" : [ "obj-4", 1 ],
									"source" : [ "obj-17", 0 ]
								}

							}
, 							{
								"patchline" : 								{
									"destination" : [ "obj-22", 0 ],
									"order" : 1,
									"source" : [ "obj-23", 0 ]
								}

							}
, 							{
								"patchline" : 								{
									"destination" : [ "obj-24", 0 ],
									"order" : 0,
									"source" : [ "obj-23", 0 ]
								}

							}
, 							{
								"patchline" : 								{
									"destination" : [ "obj-21", 0 ],
									"source" : [ "obj-24", 0 ]
								}

							}
, 							{
								"patchline" : 								{
									"destination" : [ "obj-24", 1 ],
									"source" : [ "obj-25", 0 ]
								}

							}
, 							{
								"patchline" : 								{
									"destination" : [ "obj-25", 0 ],
									"source" : [ "obj-27", 0 ]
								}

							}
, 							{
								"patchline" : 								{
									"destination" : [ "obj-25", 1 ],
									"source" : [ "obj-28", 0 ]
								}

							}
, 							{
								"patchline" : 								{
									"destination" : [ "obj-25", 2 ],
									"source" : [ "obj-38", 0 ]
								}

							}
, 							{
								"patchline" : 								{
									"destination" : [ "obj-27", 0 ],
									"hidden" : 1,
									"order" : 2,
									"source" : [ "obj-39", 0 ]
								}

							}
, 							{
								"patchline" : 								{
									"destination" : [ "obj-28", 0 ],
									"hidden" : 1,
									"order" : 1,
									"source" : [ "obj-39", 0 ]
								}

							}
, 							{
								"patchline" : 								{
									"destination" : [ "obj-38", 0 ],
									"hidden" : 1,
									"order" : 0,
									"source" : [ "obj-39", 0 ]
								}

							}
, 							{
								"patchline" : 								{
									"destination" : [ "obj-11", 0 ],
									"order" : 1,
									"source" : [ "obj-4", 0 ]
								}

							}
, 							{
								"patchline" : 								{
									"destination" : [ "obj-71", 0 ],
									"midpoints" : [ 46.5, 388.0, 78.0, 388.0 ],
									"order" : 0,
									"source" : [ "obj-4", 0 ]
								}

							}
, 							{
								"patchline" : 								{
									"destination" : [ "obj-4", 1 ],
									"source" : [ "obj-50", 0 ]
								}

							}
, 							{
								"patchline" : 								{
									"destination" : [ "obj-50", 0 ],
									"source" : [ "obj-52", 0 ]
								}

							}
, 							{
								"patchline" : 								{
									"destination" : [ "obj-50", 0 ],
									"source" : [ "obj-53", 0 ]
								}

							}
, 							{
								"patchline" : 								{
									"destination" : [ "obj-67", 1 ],
									"midpoints" : [ 704.5, 610.5, 755.5, 610.5 ],
									"order" : 1,
									"source" : [ "obj-63", 0 ]
								}

							}
, 							{
								"patchline" : 								{
									"destination" : [ "obj-69", 0 ],
									"midpoints" : [ 704.5, 610.0, 779.5, 610.0 ],
									"order" : 0,
									"source" : [ "obj-63", 0 ]
								}

							}
, 							{
								"patchline" : 								{
									"destination" : [ "obj-63", 0 ],
									"source" : [ "obj-65", 0 ]
								}

							}
, 							{
								"patchline" : 								{
									"destination" : [ "obj-4", 0 ],
									"order" : 0,
									"source" : [ "obj-8", 0 ]
								}

							}
, 							{
								"patchline" : 								{
									"destination" : [ "obj-9", 0 ],
									"order" : 1,
									"source" : [ "obj-8", 0 ]
								}

							}
 ],
						"originid" : "pat-54"
					}
,
					"patching_rect" : [ 23.0, 20.0, 47.0, 22.0 ],
					"text" : "p basic",
					"varname" : "basic[1]"
				}

			}
 ],
		"lines" : [  ],
		"originid" : "pat-28",
		"parameters" : 		{
			"obj-1::obj-1::obj-113" : [ "live.text[272]", "live.text", 0 ],
			"obj-1::obj-1::obj-34::obj-1" : [ "live.numbox[44]", "live.numbox", 0 ],
			"obj-1::obj-1::obj-40" : [ "live.text", "live.text", 0 ],
			"obj-1::obj-1::obj-42" : [ "live.text[1]", "live.text", 0 ],
			"obj-1::obj-1::obj-48" : [ "live.text[2]", "live.text[2]", 0 ],
			"obj-1::obj-1::obj-87" : [ "live.gain~[3]", "live.gain~", 0 ],
			"obj-1::obj-1::obj-90" : [ "live.text[6]", "live.text[2]", 0 ],
			"obj-1::obj-1::obj-92" : [ "live.text[5]", "live.text[2]", 0 ],
			"obj-1::obj-1::obj-94" : [ "live.text[7]", "live.text[2]", 0 ],
			"parameterbanks" : 			{
				"0" : 				{
					"index" : 0,
					"name" : "",
					"parameters" : [ "-", "-", "-", "-", "-", "-", "-", "-" ]
				}

			}
,
			"parameter_overrides" : 			{
				"obj-1::obj-1::obj-113" : 				{
					"parameter_longname" : "live.text[272]"
				}
,
				"obj-1::obj-1::obj-40" : 				{
					"parameter_longname" : "live.text"
				}
,
				"obj-1::obj-1::obj-42" : 				{
					"parameter_longname" : "live.text[1]"
				}
,
				"obj-1::obj-1::obj-48" : 				{
					"parameter_longname" : "live.text[2]"
				}
,
				"obj-1::obj-1::obj-87" : 				{
					"parameter_longname" : "live.gain~[3]"
				}
,
				"obj-1::obj-1::obj-90" : 				{
					"parameter_longname" : "live.text[6]"
				}
,
				"obj-1::obj-1::obj-92" : 				{
					"parameter_longname" : "live.text[5]"
				}
,
				"obj-1::obj-1::obj-94" : 				{
					"parameter_longname" : "live.text[7]"
				}

			}
,
			"inherited_shortname" : 1
		}
,
		"dependency_cache" : [ 			{
				"name" : "helpdetails.js",
				"bootpath" : "C74:/help/resources",
				"type" : "TEXT",
				"implicit" : 1
			}
, 			{
				"name" : "pyosc.awaitpatcherargs.maxpat",
				"bootpath" : "~/MaxProjects/pyosc/pyosc/patchers",
				"patcherrelativepath" : "../../pyosc/pyosc/patchers",
				"type" : "JSON",
				"implicit" : 1
			}
, 			{
				"name" : "ser.core.slider.maxpat",
				"bootpath" : "~/MaxProjects/serialist-max/patchers/ui",
				"patcherrelativepath" : "../patchers/ui",
				"type" : "JSON",
				"implicit" : 1
			}
, 			{
				"name" : "ser.phase.mxo",
				"type" : "iLaX"
			}
, 			{
				"name" : "ser.random.mxo",
				"type" : "iLaX"
			}
, 			{
				"name" : "ser.scope.ui.maxpat",
				"bootpath" : "~/MaxProjects/serialist-max/patchers/view",
				"patcherrelativepath" : "../patchers/view",
				"type" : "JSON",
				"implicit" : 1
			}
, 			{
				"name" : "ser.slidermapping.mxo",
				"type" : "iLaX"
			}
, 			{
				"name" : "ser.snh.mxo",
				"type" : "iLaX"
			}
, 			{
				"name" : "ser.transport.mxo",
				"type" : "iLaX"
			}
, 			{
				"name" : "ser.transport.ui.maxpat",
				"bootpath" : "~/MaxProjects/serialist-max/patchers/generatives",
				"patcherrelativepath" : "../patchers/generatives",
				"type" : "JSON",
				"implicit" : 1
			}
, 			{
				"name" : "ser.util.mxo",
				"type" : "iLaX"
			}
 ],
		"autosave" : 0
	}

}
